<svg width="123" height="123" viewBox="0 0 123 123" fill="none" xmlns="http://www.w3.org/2000/svg">
<mask id="mask0_387_2893" style="mask-type:alpha" maskUnits="userSpaceOnUse" x="0" y="0" width="123" height="123">
<g clip-path="url(#clip0_387_2893)">
<path d="M1.92188 115.312H121.078C121.588 115.312 122.077 115.11 122.437 114.75C122.798 114.389 123 113.9 123 113.391C123 112.881 122.798 112.392 122.437 112.032C122.077 111.671 121.588 111.469 121.078 111.469H115.312V40.3594C115.312 39.8497 115.11 39.3608 114.75 39.0004C114.389 38.64 113.9 38.4375 113.391 38.4375H90.3281C89.8184 38.4375 89.3296 38.64 88.9692 39.0004C88.6087 39.3608 88.4062 39.8497 88.4062 40.3594V111.469H74.9531V61.5C74.9531 60.9903 74.7506 60.5014 74.3902 60.141C74.0298 59.7806 73.541 59.5781 73.0312 59.5781H49.9688C49.459 59.5781 48.9702 59.7806 48.6098 60.141C48.2494 60.5014 48.0469 60.9903 48.0469 61.5V111.469H34.5938V80.7188C34.5938 80.209 34.3913 79.7202 34.0308 79.3598C33.6704 78.9994 33.1816 78.7969 32.6719 78.7969H9.60938C9.09966 78.7969 8.61083 78.9994 8.2504 79.3598C7.88998 79.7202 7.6875 80.209 7.6875 80.7188V111.469H1.92188C1.41216 111.469 0.923326 111.671 0.562904 112.032C0.202483 112.392 0 112.881 0 113.391C0 113.9 0.202483 114.389 0.562904 114.75C0.923326 115.11 1.41216 115.312 1.92188 115.312ZM92.25 42.2812H111.469V111.469H92.25V42.2812ZM51.8906 63.4219H71.1094V111.469H51.8906V63.4219ZM11.5312 82.6406H30.75V111.469H11.5312V82.6406Z" fill="#1FB0E2"/>
<path d="M121.078 119.156H1.92188C1.41216 119.156 0.923326 119.359 0.562904 119.719C0.202483 120.08 0 120.568 0 121.078C0 121.588 0.202483 122.077 0.562904 122.437C0.923326 122.798 1.41216 123 1.92188 123H121.078C121.588 123 122.077 122.798 122.437 122.437C122.798 122.077 123 121.588 123 121.078C123 120.568 122.798 120.08 122.437 119.719C122.077 119.359 121.588 119.156 121.078 119.156Z" fill="#1FB0E2"/>
<path d="M92.0809 21.3213L90.4319 30.9422C90.3713 31.2956 90.4109 31.6589 90.546 31.9911C90.6812 32.3232 90.9066 32.6109 91.1967 32.8217C91.4868 33.0324 91.8301 33.1578 92.1877 33.1836C92.5454 33.2094 92.9032 33.1347 93.2205 32.9678L101.859 28.4264L110.508 32.9697C110.825 33.137 111.183 33.2119 111.542 33.1861C111.9 33.1603 112.243 33.0348 112.533 32.8237C112.824 32.6134 113.05 32.3259 113.186 31.9937C113.322 31.6615 113.362 31.2979 113.302 30.9441L111.653 21.3213L118.645 14.5082C118.902 14.2578 119.084 13.9405 119.17 13.5921C119.256 13.2438 119.242 12.8783 119.131 12.5371C119.02 12.1959 118.816 11.8926 118.542 11.6615C118.267 11.4304 117.934 11.2807 117.578 11.2295L107.919 9.8246L103.589 1.07238C103.412 0.772705 103.161 0.524303 102.859 0.351728C102.557 0.179153 102.215 0.0883789 101.867 0.0883789C101.519 0.0883789 101.177 0.179153 100.875 0.351728C100.573 0.524303 100.322 0.772705 100.145 1.07238L95.8151 9.8246L86.1557 11.2295C85.8006 11.2807 85.4669 11.4304 85.1924 11.6615C84.918 11.8926 84.7137 12.1959 84.6027 12.5371C84.4917 12.8783 84.4784 13.2438 84.5644 13.5921C84.6503 13.9405 84.8321 14.2578 85.0891 14.5082L92.0809 21.3213ZM97.3679 13.4838C97.6763 13.4391 97.9692 13.32 98.2213 13.1368C98.4734 12.9537 98.6772 12.712 98.8151 12.4326L101.859 6.26528L104.904 12.4326C105.042 12.712 105.245 12.9537 105.497 13.1368C105.75 13.32 106.042 13.4391 106.351 13.4838L113.158 14.4736L108.23 19.2783C108.007 19.4959 107.841 19.7644 107.745 20.0607C107.649 20.357 107.626 20.6722 107.679 20.9792L108.842 27.7576L102.755 24.5577C102.479 24.4123 102.171 24.3363 101.859 24.3363C101.547 24.3363 101.24 24.4123 100.964 24.5577L94.8772 27.7576L96.0399 20.9792C96.0927 20.6722 96.0701 20.357 95.974 20.0607C95.8779 19.7644 95.7112 19.4959 95.4884 19.2783L90.5607 14.4736L97.3679 13.4838Z" fill="#1FB0E2"/>
<path d="M51.7215 42.4619L50.0725 52.0828C50.012 52.4362 50.0515 52.7995 50.1867 53.1317C50.3218 53.4638 50.5472 53.7515 50.8373 53.9623C51.1274 54.173 51.4707 54.2984 51.8284 54.3242C52.186 54.3501 52.5438 54.2753 52.8612 54.1084L61.5 49.5671L70.1388 54.1104C70.4564 54.2776 70.8145 54.3526 71.1725 54.3268C71.5305 54.3009 71.8742 54.1754 72.1645 53.9643C72.4553 53.754 72.6815 53.4665 72.8174 53.1343C72.9533 52.8021 72.9934 52.4385 72.9332 52.0847L71.2843 42.4619L78.276 35.6488C78.533 35.3984 78.7148 35.0811 78.8008 34.7328C78.8868 34.3844 78.8735 34.0189 78.7625 33.6777C78.6515 33.3365 78.4472 33.0332 78.1727 32.8021C77.8982 32.571 77.5645 32.4214 77.2094 32.3701L67.5501 30.9652L63.2297 22.213C63.0531 21.9133 62.8014 21.6649 62.4993 21.4924C62.1973 21.3198 61.8555 21.229 61.5077 21.229C61.1599 21.229 60.818 21.3198 60.516 21.4924C60.214 21.6649 59.9623 21.9133 59.7857 22.213L55.4634 30.9652L45.804 32.3701C45.4489 32.4214 45.1152 32.571 44.8408 32.8021C44.5663 33.0332 44.362 33.3365 44.251 33.6777C44.14 34.0189 44.1267 34.3844 44.2127 34.7328C44.2986 35.0811 44.4804 35.3984 44.7374 35.6488L51.7215 42.4619ZM57.0086 34.6245C57.317 34.5797 57.6098 34.4606 57.8619 34.2775C58.114 34.0943 58.3178 33.8526 58.4558 33.5732L61.5 27.4059L64.5443 33.5732C64.6822 33.8526 64.886 34.0943 65.1381 34.2775C65.3902 34.4606 65.6831 34.5797 65.9914 34.6245L72.7987 35.6142L67.871 40.4189C67.6481 40.6365 67.4815 40.905 67.3854 41.2013C67.2893 41.4976 67.2667 41.8128 67.3194 42.1198L68.4822 48.8982L62.3956 45.6983C62.1195 45.5529 61.8121 45.4769 61.5 45.4769C61.1879 45.4769 60.8805 45.5529 60.6044 45.6983L54.5178 48.8982L55.6806 42.1198C55.7333 41.8128 55.7107 41.4976 55.6146 41.2013C55.5185 40.905 55.3519 40.6365 55.129 40.4189L50.2013 35.6142L57.0086 34.6245Z" fill="#1FB0E2"/>
<path d="M11.3621 61.6806L9.71315 71.3015C9.6526 71.655 9.69213 72.0183 9.82727 72.3504C9.96242 72.6826 10.1878 72.9703 10.4779 73.181C10.768 73.3918 11.1113 73.5172 11.469 73.543C11.8267 73.5688 12.1844 73.4941 12.5018 73.3272L21.1406 68.7858L29.7891 73.3291C30.1067 73.4964 30.4647 73.5713 30.8228 73.5455C31.1808 73.5197 31.5244 73.3941 31.8147 73.183C32.1056 72.9728 32.3317 72.6853 32.4676 72.3531C32.6035 72.0209 32.6436 71.6573 32.5835 71.3035L30.9345 61.6806L37.9263 54.8676C38.1833 54.6172 38.365 54.2999 38.451 53.9515C38.537 53.6031 38.5237 53.2377 38.4127 52.8965C38.3017 52.5553 38.0974 52.252 37.8229 52.0209C37.5485 51.7898 37.2148 51.6401 36.8596 51.5889L27.2003 50.184L22.8703 41.4318C22.6937 41.1321 22.442 40.8837 22.14 40.7111C21.838 40.5385 21.4961 40.4478 21.1483 40.4478C20.8005 40.4478 20.4587 40.5385 20.1567 40.7111C19.8546 40.8837 19.6029 41.1321 19.4263 41.4318L15.0963 50.184L5.43698 51.5889C5.08185 51.6401 4.74817 51.7898 4.47369 52.0209C4.19921 52.252 3.99491 52.5553 3.88391 52.8965C3.77291 53.2377 3.75964 53.6031 3.84561 53.9515C3.93157 54.2999 4.11334 54.6172 4.37034 54.8676L11.3621 61.6806ZM16.6492 53.8432C16.9576 53.7984 17.2504 53.6794 17.5025 53.4962C17.7547 53.3131 17.9584 53.0714 18.0964 52.792L21.1406 46.6247L24.1849 52.792C24.3228 53.0714 24.5266 53.3131 24.7787 53.4962C25.0308 53.6794 25.3237 53.7984 25.632 53.8432L32.4393 54.833L27.5116 59.6377C27.2887 59.8553 27.1221 60.1238 27.026 60.4201C26.9299 60.7163 26.9073 61.0316 26.9601 61.3385L28.1132 68.117L22.0266 64.9171C21.7505 64.7716 21.4431 64.6956 21.131 64.6956C20.8189 64.6956 20.5115 64.7716 20.2354 64.9171L14.1585 68.1131L15.3212 61.3347C15.374 61.0277 15.3513 60.7125 15.2552 60.4162C15.1592 60.1199 14.9925 59.8514 14.7696 59.6338L9.84192 54.8291L16.6492 53.8432Z" fill="#1FB0E2"/>
</g>
</mask>
<g mask="url(#mask0_387_2893)">
<rect width="123" height="123" fill="url(#paint0_linear_387_2893)"/>
</g>
<defs>
<linearGradient id="paint0_linear_387_2893" x1="61.5" y1="0" x2="61.5" y2="123" gradientUnits="userSpaceOnUse">
<stop stop-color="#1D9ED3"/>
<stop offset="1" stop-color="#1673B1"/>
</linearGradient>
<clipPath id="clip0_387_2893">
<rect width="123" height="123" fill="white"/>
</clipPath>
</defs>
</svg>
