<svg fill="none" xmlns="http://www.w3.org/2000/svg">
<mask id="mask0_387_2840" style="mask-type:alpha" maskUnits="userSpaceOnUse" x="0" y="0" width="123" height="123">
<g clip-path="url(#clip0_387_2840)">
<path d="M61.7055 42.9118C63.3984 42.9118 64.7694 41.5398 64.7694 39.8479C64.7694 38.1559 63.3984 36.7839 61.7055 36.7839C48.1689 36.7839 37.1951 47.7578 37.1951 61.2953C37.1951 74.8319 48.1689 85.8058 61.7055 85.8058C75.2431 85.8058 86.2169 74.8319 86.2169 61.2953C86.2169 59.6024 84.8449 58.2314 83.153 58.2314C81.461 58.2314 80.089 59.6024 80.089 61.2953C80.089 71.448 71.8591 79.6788 61.7055 79.6788C51.5528 79.6788 43.322 71.448 43.322 61.2953C43.322 51.1417 51.5528 42.9118 61.7055 42.9118Z" fill="#1FB0E2"/>
<path d="M120.165 43.0967C119.633 41.4892 117.899 40.6174 116.29 41.1495C114.719 41.6694 113.845 43.3417 114.313 44.9285C123.476 74.1066 107.251 105.188 78.0725 114.351C48.8954 123.513 17.8141 107.288 8.65145 78.1099C-0.512161 48.9318 15.714 17.8506 44.8911 8.68789C55.6923 5.29646 67.2723 5.29646 78.0725 8.68789C79.6941 9.1768 81.4048 8.25903 81.8938 6.63745C82.3752 5.04027 81.4921 3.35207 79.9053 2.83594C47.5065 -7.32896 13.001 10.6952 2.8361 43.0948C-7.3288 75.4936 10.6963 109.999 43.095 120.164C75.4947 130.329 109.999 112.305 120.164 79.9051C123.923 67.9234 123.923 55.0784 120.165 43.0967Z" fill="#1FB0E2"/>
<path d="M67.5406 21.8894C67.5565 20.1449 66.2165 18.6866 64.4766 18.5562C63.5617 18.4783 62.6458 18.4004 61.7064 18.4004C38.0162 18.4004 18.8115 37.605 18.8115 61.2953C18.8115 84.9846 38.0162 104.189 61.7064 104.189C85.3958 104.189 104.6 84.9846 104.6 61.2953C104.6 60.187 104.533 59.0797 104.397 57.9799C104.152 56.2982 102.59 55.1337 100.909 55.3786C99.2271 55.6226 98.0625 57.1851 98.3065 58.8667C98.3159 58.9305 98.3271 58.9934 98.3403 59.0572C98.4069 59.7995 98.4726 60.5352 98.4726 61.2934C98.4735 81.5998 82.0128 98.0605 61.7074 98.0624C41.401 98.0633 24.9403 81.6017 24.9394 61.2962C24.9384 40.9908 41.3982 24.5292 61.7046 24.5282H61.7055C62.4656 24.5282 63.2023 24.5939 63.9427 24.6596L64.517 24.7075C66.1179 24.776 67.4711 23.5335 67.5387 21.9326C67.5396 21.9176 67.5396 21.9035 67.5406 21.8894Z" fill="#1FB0E2"/>
<path d="M80.089 27.5921V38.5791L59.5396 59.1285C58.3225 60.3043 58.2887 62.244 59.4645 63.4612C60.6404 64.6783 62.5801 64.7121 63.7972 63.5362C63.8225 63.5118 63.8479 63.4865 63.8723 63.4612L84.4217 42.9118H95.4086C96.2213 42.9118 97.0002 42.5889 97.5754 42.0137L115.958 23.6302C117.154 22.4337 117.154 20.494 115.958 19.2975C115.384 18.7232 114.605 18.4004 113.792 18.4004H104.6V9.20861C104.6 7.51665 103.228 6.14469 101.536 6.14563C100.724 6.14563 99.9449 6.46844 99.3706 7.04275L80.9871 25.4263C80.4118 26.0006 80.089 26.7795 80.089 27.5921ZM86.2168 28.8609L98.4725 16.6052V21.4643C98.4725 23.1563 99.8445 24.5282 101.536 24.5282H106.396L94.1399 36.7839H86.2168V28.8609Z" fill="#1FB0E2"/>
</g>
</mask>
<g mask="url(#mask0_387_2840)">
<rect width="123" height="123" fill="url(#paint0_linear_387_2840)"/>
</g>
<defs>
<linearGradient id="paint0_linear_387_2840" x1="61.5" y1="0" x2="61.5" y2="123" gradientUnits="userSpaceOnUse">
<stop stop-color="#1D9ED3"/>
<stop offset="1" stop-color="#1673B1"/>
</linearGradient>
<clipPath id="clip0_387_2840">
<rect width="123" height="123" fill="white"/>
</clipPath>
</defs>
</svg>
