<svg fill="none" xmlns="http://www.w3.org/2000/svg">
<g clip-path="url(#clip0_387_2993)">
<path d="M0 11.9921C0 11.5966 0.172338 11.2327 0.51687 10.9321L11.9419 0.474621C12.3209 0.126566 12.6828 0 13.0963 0C13.9408 0 14.5956 0.569547 14.5956 1.36058C14.5956 1.74028 14.4577 2.10415 14.182 2.35728L10.322 5.96442L3.4809 11.6915L3.13622 10.9005L8.68491 10.5841H30.4836C31.3796 10.5841 32 11.1694 32 11.9921C32 12.8148 31.3796 13.4002 30.4836 13.4002H8.68491L3.13622 13.0838L3.4809 12.3085L10.322 18.0199L14.182 21.6269C14.4577 21.8642 14.5956 22.244 14.5956 22.6236C14.5956 23.4148 13.9408 23.9842 13.0963 23.9842C12.6828 23.9842 12.3209 23.8419 11.9763 23.5413L0.51687 13.0521C0.172338 12.7515 0 12.3876 0 11.9921Z" fill="url(#paint0_linear_387_2993)"/>
</g>
<defs>
<linearGradient id="paint0_linear_387_2993" x1="16" y1="0" x2="16" y2="23.9842" gradientUnits="userSpaceOnUse">
<stop stop-color="#20B1E2"/>
<stop offset="1" stop-color="#105699"/>
</linearGradient>
<clipPath id="clip0_387_2993">
<rect width="32" height="24" fill="white" transform="matrix(-1 0 0 1 32 0)"/>
</clipPath>
</defs>
</svg>
