<svg width="32" height="24" viewBox="0 0 32 24" fill="none" xmlns="http://www.w3.org/2000/svg">
<g clip-path="url(#clip0_431_972)">
<path d="M32 11.9921C32 11.5966 31.8277 11.2327 31.4831 10.9321L20.0581 0.474621C19.6791 0.126566 19.3172 0 18.9037 0C18.0592 0 17.4044 0.569547 17.4044 1.36058C17.4044 1.74028 17.5423 2.10415 17.818 2.35728L21.678 5.96442L28.5191 11.6915L28.8638 10.9005L23.3151 10.5841H1.51643C0.620356 10.5841 0 11.1694 0 11.9921C0 12.8148 0.620356 13.4002 1.51643 13.4002H23.3151L28.8638 13.0838L28.5191 12.3085L21.678 18.0199L17.818 21.6269C17.5423 21.8642 17.4044 22.244 17.4044 22.6236C17.4044 23.4148 18.0592 23.9842 18.9037 23.9842C19.3172 23.9842 19.6791 23.8419 20.0237 23.5413L31.4831 13.0521C31.8277 12.7515 32 12.3876 32 11.9921Z" fill="url(#paint0_linear_431_972)"/>
</g>
<defs>
<linearGradient id="paint0_linear_431_972" x1="16" y1="0" x2="16" y2="23.9842" gradientUnits="userSpaceOnUse">
<stop stop-color="#20B1E2"/>
<stop offset="1" stop-color="#105699"/>
</linearGradient>
<clipPath id="clip0_431_972">
<rect width="32" height="24" fill="white"/>
</clipPath>
</defs>
</svg>
