<svg xmlns="http://www.w3.org/2000/svg">
<path d="M12.8898 18H35.0984C35.5967 18 36 17.5629 36 17.0066C36 16.4503 35.5967 16 35.0984 16H12.8898C12.3915 16 12 16.4503 12 17.0066C12 17.5629 12.3915 18 12.8898 18Z" />
<path d="M12.8898 25H35.0984C35.5967 25 36 24.5658 36 24.0132C36 23.4474 35.5967 23 35.0984 23H12.8898C12.3915 23 12 23.4474 12 24.0132C12 24.5658 12.3915 25 12.8898 25Z" />
<path d="M12.8898 32H35.0984C35.5967 32 36 31.5526 36 30.9868C36 30.4342 35.5967 30 35.0984 30H12.8898C12.3915 30 12 30.4342 12 30.9868C12 31.5526 12.3915 32 12.8898 32Z" />
</svg>
