<svg xmlns="http://www.w3.org/2000/svg">
<path d="M6.5 11.5C6.5 8.672 6.5 7.257 7.379 6.379C8.257 5.5 9.672 5.5 12.5 5.5H15.5C18.328 5.5 19.743 5.5 20.621 6.379C21.5 7.257 21.5 8.672 21.5 11.5V16.5C21.5 19.328 21.5 20.743 20.621 21.621C19.743 22.5 18.328 22.5 15.5 22.5H12.5C9.672 22.5 8.257 22.5 7.379 21.621C6.5 20.743 6.5 19.328 6.5 16.5V11.5Z"  stroke-width="1.5"/>
<path d="M6.5 19.5C5.70435 19.5 4.94129 19.1839 4.37868 18.6213C3.81607 18.0587 3.5 17.2956 3.5 16.5V10.5C3.5 6.729 3.5 4.843 4.672 3.672C5.843 2.5 7.729 2.5 11.5 2.5H15.5C16.2956 2.5 17.0587 2.81607 17.6213 3.37868C18.1839 3.94129 18.5 4.70435 18.5 5.5"  stroke-width="1.5"/>
</svg>
