<svg width="48" height="48" viewBox="0 0 48 48" fill="none" xmlns="http://www.w3.org/2000/svg">
<g clip-path="url(#clip0_431_1059)">
<path fill-rule="evenodd" clip-rule="evenodd" d="M31.4142 22.586C31.7891 22.9611 31.9998 23.4697 31.9998 24C31.9998 24.5303 31.7891 25.0389 31.4142 25.414L20.1002 36.728C19.9157 36.919 19.695 37.0714 19.451 37.1762C19.207 37.281 18.9446 37.3362 18.679 37.3385C18.4134 37.3408 18.1501 37.2902 17.9043 37.1896C17.6585 37.0891 17.4352 36.9406 17.2474 36.7528C17.0596 36.565 16.9111 36.3417 16.8106 36.0959C16.71 35.8501 16.6594 35.5868 16.6617 35.3212C16.664 35.0556 16.7192 34.7932 16.824 34.5492C16.9288 34.3052 17.0812 34.0845 17.2722 33.9L27.1722 24L17.2722 14.1C16.9079 13.7228 16.7063 13.2176 16.7108 12.6932C16.7154 12.1688 16.9257 11.6672 17.2966 11.2964C17.6674 10.9255 18.169 10.7152 18.6934 10.7106C19.2178 10.7061 19.723 10.9077 20.1002 11.272L31.4142 22.586Z" fill="white"/>
</g>
<defs>
<clipPath id="clip0_431_1059">
<rect width="48" height="48" fill="white"/>
</clipPath>
</defs>
</svg>
