<svg xmlns="http://www.w3.org/2000/svg">
<g clip-path="url(#clip0_387_3198)">
<path fill-rule="evenodd" clip-rule="evenodd" d="M16.586 22.586C16.211 22.9611 16.0004 23.4697 16.0004 24C16.0004 24.5303 16.211 25.0389 16.586 25.414L27.9 36.728C28.0845 36.919 28.3052 37.0714 28.5492 37.1762C28.7932 37.281 29.0556 37.3362 29.3212 37.3385C29.5867 37.3408 29.8501 37.2902 30.0959 37.1896C30.3417 37.0891 30.565 36.9406 30.7528 36.7528C30.9406 36.565 31.0891 36.3417 31.1896 36.0959C31.2902 35.8501 31.3408 35.5868 31.3385 35.3212C31.3362 35.0556 31.281 34.7932 31.1762 34.5492C31.0714 34.3052 30.919 34.0845 30.728 33.9L20.828 24L30.728 14.1C31.0923 13.7228 31.2939 13.2176 31.2893 12.6932C31.2848 12.1688 31.0744 11.6672 30.7036 11.2964C30.3328 10.9255 29.8312 10.7152 29.3068 10.7106C28.7824 10.7061 28.2772 10.9077 27.9 11.272L16.586 22.586Z" />
</g>
<defs>
<clipPath id="clip0_387_3198">
<rect width="48" height="48" transform="matrix(-1 0 0 1 48 0)"/>
</clipPath>
</defs>
</svg>
