<svg width="32" height="52" viewBox="0 0 32 52" fill="none" xmlns="http://www.w3.org/2000/svg">
<g clip-path="url(#clip0_431_741)">
<path d="M29.7947 32.7998C29.9689 32.8278 30.1313 32.9072 30.2618 33.0282C30.3071 33.0795 30.3468 33.1542 30.4179 33.0834C30.7426 32.7603 30.7033 33.1198 30.7703 33.277C30.7772 33.3037 30.7802 33.3313 30.7792 33.3589C30.8309 33.8983 30.8599 34.4154 31.1132 34.9415C31.3988 35.5348 31.3909 36.2513 31.5054 36.9156C31.8342 38.8239 31.6901 40.7414 31.6316 42.6558C31.5978 43.7592 31.7121 44.8644 31.5828 45.9651C31.5411 46.3202 31.4837 46.6738 31.4234 47.0263C31.2408 48.0944 31.4657 49.1096 31.8816 50.0718C32.0506 50.4627 31.7533 50.6491 31.6993 50.9342C31.685 51.0093 31.548 50.971 31.5006 50.9005C31.4348 50.7897 31.3754 50.6751 31.3228 50.5572C31.0325 50.7492 30.9304 51.1475 30.5326 51.2069C30.4077 51.2255 30.4579 51.46 30.5814 51.5472C30.8437 51.7324 30.7004 51.8412 30.5264 51.9547H30.2827C30.2653 51.8103 30.1493 51.6785 30.2438 51.5186C30.2875 51.4448 30.2902 51.353 30.1865 51.3166C30.1478 51.3022 30.1054 51.3024 30.0669 51.3171C30.0283 51.3318 29.9961 51.3601 29.9762 51.3968C29.7937 51.678 29.6155 51.595 29.4108 51.4126C29.2411 51.2613 29.0443 51.1418 28.8393 50.9936C28.8175 51.2738 28.7523 51.4938 28.4039 51.3123C28.288 51.2519 28.219 51.3918 28.1394 51.4607C28.0385 51.5711 27.9227 51.6663 27.7955 51.7435C27.6014 51.8286 27.3607 51.9429 27.1795 51.7867C27.0154 51.6453 27.2127 51.4631 27.2457 51.2981C27.2613 51.2203 27.3066 51.1411 27.2265 51.0485C27.022 51.0986 26.8452 51.2484 26.599 51.2375C26.4498 51.231 26.396 51.4642 26.3732 51.6349C26.3562 51.7623 26.3194 51.894 26.1564 51.8776C25.9272 51.8546 26.1632 51.6723 26.0574 51.5802C25.741 51.7969 25.5739 51.707 25.4819 51.3155C25.4203 51.0534 24.9944 51.0167 25.0455 50.6459C24.8405 50.7117 24.6938 51.3719 24.4934 50.6804C24.4659 50.5856 24.3502 50.6215 24.2853 50.6688C24.2193 50.7167 24.1573 50.7964 24.2392 50.8746C24.3366 50.9676 24.4524 51.0402 24.5574 51.1251C24.7017 51.2418 24.9121 51.332 24.8319 51.5747C24.8075 51.6551 24.7582 51.7252 24.6913 51.7745C24.6244 51.8238 24.5436 51.8495 24.4611 51.8478C24.2432 51.8503 24.0178 51.8562 23.9118 51.5998C23.8693 51.4992 23.8325 51.3962 23.8017 51.2912C23.7591 51.142 23.6589 51.0785 23.5262 51.1341C23.2298 51.2583 23.1401 51.1056 23.0943 50.8441C23.0738 50.727 23.0354 50.5747 22.8807 50.5869C22.6982 50.6012 22.6561 50.7532 22.6448 50.9177C22.6596 51.0871 22.6205 51.2569 22.5334 51.4018C22.3724 51.2494 22.3569 51.0364 22.2967 50.8474C22.2149 50.5906 22.1215 50.5828 21.949 50.7822C21.6635 51.1119 21.5959 51.1033 21.3791 50.725C21.3552 50.6765 21.3208 50.6343 21.2784 50.6015C21.2361 50.5687 21.187 50.5462 21.1349 50.5357C20.5597 50.407 20.3528 49.9588 20.2236 49.4419C20.167 49.2156 20.1171 48.9861 20.0413 48.7663C19.9908 48.6186 19.9719 48.4615 19.9859 48.3056C19.9999 48.1498 20.0464 47.9988 20.1223 47.8628C20.3392 47.3978 20.6097 46.8944 20.2385 46.3613C20.2268 46.3376 20.2208 46.3114 20.2212 46.2849C20.2215 46.2584 20.228 46.2324 20.2403 46.209C20.5172 45.8189 20.3409 45.4446 20.2106 45.0685C20.124 44.8204 20.0978 44.5545 20.1343 44.2937C20.1453 44.2132 20.1806 44.1183 20.2695 44.111C20.3824 44.1017 20.3773 44.2135 20.3874 44.2896C20.407 44.4913 20.4402 44.6913 20.4868 44.8883C20.8315 43.1284 20.6081 41.3666 20.5251 39.606C20.9648 39.032 21.3716 38.4273 21.8517 37.8909C22.6298 37.0214 22.8253 35.7775 23.7022 34.9763C23.8402 34.8503 23.3856 33.9357 23.1912 33.9104C23.1019 33.8988 23.0455 33.9672 22.9756 34.0068C22.8459 34.0805 22.7749 34.0114 22.7399 33.8831C23.0878 33.803 23.3181 33.5048 23.648 33.382C24.0298 33.2398 24.1418 32.8262 24.3826 32.5409C24.4804 32.6534 24.6403 32.7426 24.7265 32.6214C25.0087 32.2246 25.3072 32.4561 25.5925 32.57C25.8691 32.6804 26.118 32.8958 26.4001 32.9492C26.6338 32.9751 26.8564 33.0639 27.0453 33.2067C27.0283 33.3837 26.9916 33.6275 27.1632 33.6817C27.3775 33.7495 27.4452 33.4922 27.5381 33.3345C27.5566 33.299 27.5731 33.2624 27.5876 33.225C27.7627 33.0593 27.9131 32.9174 28.127 33.212C28.2966 33.4456 28.522 33.5508 28.7706 33.2441C28.9024 33.1305 29.0523 33.0405 29.2136 32.978C29.3778 33.0325 29.2587 33.3199 29.4324 33.3102C29.6011 33.3007 29.5512 33.0653 29.639 32.9529C29.6716 32.9112 29.6977 32.8643 29.7267 32.8197L29.7233 32.8217C29.7361 32.8242 29.7492 32.8235 29.7616 32.8196C29.7741 32.8158 29.7854 32.809 29.7947 32.7998Z" fill="#6B3888"/>
<path d="M11.9932 4.23997C12.1955 4.09009 12.4385 4.00805 12.6885 4.0052C12.9385 4.00235 13.1832 4.07884 13.3887 4.22407C13.6509 4.38862 13.9267 4.53049 14.1961 4.6831C14.4287 4.82143 14.5988 5.0475 14.6695 5.31257C14.8424 5.82347 15.0148 6.36259 15.6389 6.50498C15.6731 6.51277 15.7224 6.54859 15.7274 6.57793C15.8325 7.2005 16.4079 7.2539 16.8107 7.51525C16.8176 7.55053 16.8359 7.58242 16.8626 7.60582C16.8894 7.62922 16.9231 7.64277 16.9584 7.6443L17.0271 7.69055C17.0566 7.82094 17.2818 7.94797 17.1169 8.06571C16.99 8.15628 16.8636 7.98709 16.7679 7.86927C16.6961 7.78088 16.6282 7.66749 16.4366 7.71107C16.5935 8.14904 16.9967 8.3145 17.2842 8.58942L17.2984 8.68035C17.3421 9.08982 17.7559 9.19987 17.9352 9.49964C18.0855 9.79662 18.3779 9.93712 18.6208 10.1255C19.1543 10.5484 19.6587 11.0083 20.1302 11.5019C20.3309 11.7378 20.603 11.8989 20.7807 12.1615C20.8584 12.2764 20.9698 12.3818 20.9131 12.5266C20.7665 12.9006 20.9758 13.1385 21.1743 13.4114C21.4315 13.7649 21.7986 14.1272 21.8 14.5554C21.819 15.1947 21.9874 15.8202 22.2913 16.3798C22.4862 16.8378 22.4965 17.3557 22.32 17.8215C22.213 18.0804 22.167 18.3613 22.1856 18.6417C22.1961 18.8893 22.3933 19.187 22.0017 19.3299C21.9758 19.3393 21.9732 19.4622 21.986 19.5269C22.0329 19.7641 21.9094 19.8687 21.7195 19.9678C21.259 20.2083 20.7269 20.2715 20.297 20.5974C20.2249 20.6522 20.1364 20.6797 20.0465 20.6753C19.9567 20.671 19.8712 20.6349 19.8045 20.5734C19.7114 20.4833 19.6108 20.3911 19.4879 20.4793C19.3464 20.5809 19.4205 20.7187 19.4666 20.851C19.6338 21.3318 19.5397 21.458 19.0554 21.4378C18.8401 21.4288 18.5645 21.4009 18.638 21.7533C18.7269 22.1797 18.6178 22.3947 18.0942 22.3148C18.2512 22.5953 18.3635 22.8387 18.1717 23.085C17.9756 23.1094 17.7672 23.0907 17.6435 23.3085C17.5307 23.507 17.4041 23.4619 17.2553 23.3269C17.0048 23.0891 16.7389 22.8688 16.4595 22.6675C16.2415 22.5456 16.0161 22.4383 15.7845 22.3463C14.7368 21.817 13.8978 20.9899 12.9721 20.2865C11.9146 19.3065 10.9778 18.2066 9.99196 17.1555C9.48678 16.6169 8.9738 16.0869 8.42443 15.5947C8.04352 15.2239 7.71474 14.8011 7.44742 14.3383C6.81953 13.349 5.92121 12.714 4.88876 12.275C4.5277 12.1215 4.48185 11.8482 4.38008 11.5632C4.33958 11.4498 4.4184 11.4058 4.50395 11.4128C4.62746 11.4301 4.74978 11.4553 4.87021 11.4881C4.98529 11.1724 4.73217 10.8192 4.99597 10.5055C5.08475 10.3999 4.886 10.2966 4.74276 10.2802C4.63335 10.2678 4.47691 10.3372 4.46206 10.1444C4.45708 10.0884 4.46807 10.0321 4.49372 9.98237C4.51937 9.93262 4.55858 9.89149 4.60662 9.86396C4.63658 9.84726 4.66969 9.83726 4.70374 9.83465C4.73779 9.83204 4.77199 9.83687 4.80406 9.84881C4.83613 9.86076 4.86534 9.87954 4.88974 9.90392C4.91413 9.9283 4.93314 9.9577 4.94552 9.99017C4.99016 10.0687 5.03198 10.1877 5.1501 10.1489C5.25466 10.1146 5.26341 10.0066 5.25499 9.90428C5.23304 9.63773 5.3668 9.51746 5.61549 9.52807C5.84901 9.51586 6.07977 9.47084 6.30123 9.39429C6.19169 9.2003 6.0917 9.00821 6.37857 8.8868C6.519 8.82737 6.48645 8.68143 6.50275 8.56121C6.51371 8.38285 6.54414 8.20629 6.59347 8.03482C6.65516 7.87004 6.76825 7.68224 6.9416 7.65417C7.1383 7.62232 7.15372 7.85763 7.23623 7.98774C7.28531 8.06514 7.30392 8.19522 7.4207 8.17833C7.50718 8.16583 7.49717 8.04367 7.5387 7.97941C7.74069 7.66694 7.87485 7.36673 7.56639 7.03408C7.50986 6.97312 7.648 6.83213 7.6517 6.83572C7.96075 7.13686 7.95966 6.69871 8.11228 6.63979C8.14679 6.62646 8.20602 6.61919 8.22695 6.6389C8.53169 6.92589 8.94461 6.65094 9.28896 6.90324C9.29292 6.62604 9.1359 6.20421 9.64322 6.49323C9.72375 6.5391 9.77478 6.41749 9.79394 6.34037C9.82079 6.23231 9.7484 6.18538 9.65797 6.18808C9.52299 6.18908 9.3884 6.203 9.25596 6.22963C9.074 6.27074 8.88323 6.29554 8.78142 6.11566C8.73842 6.03545 8.72435 5.94238 8.74167 5.85268C8.759 5.76297 8.80662 5.68231 8.87623 5.62475C9.02157 5.48147 9.15726 5.30849 9.39809 5.42011C9.49656 5.46575 9.59246 5.51712 9.6905 5.56378C9.81137 5.6213 9.93389 5.64589 9.99662 5.48911C10.1109 5.2034 10.2803 5.21097 10.5015 5.36161C10.5998 5.42856 10.7287 5.50842 10.8352 5.39748C10.9716 5.25544 10.8601 5.12247 10.7791 4.9976C10.8231 4.79669 10.9733 4.85222 11.1018 4.86083C11.2073 4.8679 11.3969 4.89118 11.3815 4.7926C11.2971 4.25061 11.6775 4.32067 11.9809 4.27763C11.9866 4.27684 11.9892 4.25304 11.9932 4.23997Z" fill="#43A83E"/>
<path d="M12.9724 20.2867C13.8981 20.9901 14.737 21.8172 15.7847 22.3464C16.0163 22.4385 16.2418 22.5458 16.4597 22.6676C16.7392 22.869 17.005 23.0893 17.2555 23.327C17.4043 23.4621 17.5309 23.5072 17.6437 23.3087C17.7674 23.0909 17.9758 23.1095 18.1719 23.0852C18.2122 23.1892 18.2372 23.2987 18.246 23.4101C18.311 23.9189 19.1562 23.9615 18.9236 24.6217C19.3844 24.8794 19.115 25.203 18.9951 25.5067C18.843 25.8919 18.6331 26.2549 18.5697 26.6738C18.5005 26.8432 18.4095 26.9615 18.1951 26.9294C18.0838 26.9127 17.9332 26.9303 17.9051 27.0784C17.8787 27.2173 18.0085 27.2864 18.1023 27.3569C18.2403 27.4606 18.385 27.555 18.5268 27.6534C18.6529 27.8341 18.5091 27.9195 18.4024 28.0163C18.0237 28.36 18.0352 28.3491 18.3709 28.7393C18.4968 28.8857 18.8223 29.0748 18.3946 29.2873C18.255 29.3566 18.4393 29.504 18.4464 29.5045C18.7444 29.5275 18.7311 29.8041 18.8322 29.9845C18.5074 30.2395 18.4688 30.2862 18.5158 30.3669C18.6664 30.6255 18.632 30.7227 18.3318 30.7304C17.801 30.7149 17.2738 30.8229 16.7901 31.0464C16.0738 31.4092 15.2469 31.4259 14.4657 31.5236C13.7782 31.6096 13.0889 31.7642 12.3871 31.7282C10.7258 31.6962 9.06725 31.5424 7.40339 31.6224C6.43015 31.6422 5.45764 31.5553 4.50258 31.3632C4.21036 31.3005 3.90798 31.3065 3.61836 31.3808C3.01489 31.559 2.35607 31.5358 1.80022 31.8817C1.45678 32.0954 1.27128 31.7147 0.994519 31.6756C0.935708 31.6673 0.995026 31.5226 1.06089 31.4768C1.16381 31.4119 1.26997 31.3525 1.37895 31.2989C1.19458 31.0066 0.830697 30.9044 0.749319 30.5146C0.712097 30.3363 0.50189 30.4476 0.392111 30.5634C0.328416 30.6306 0.275964 30.7462 0.168148 30.6726C0.118545 30.635 0.0809275 30.5833 0.0600155 30.524C0.0391035 30.4646 0.0358286 30.4003 0.0506012 30.3391C0.0733517 30.2042 0.192558 30.1886 0.298537 30.1706C0.404256 30.1526 0.535337 30.3249 0.615274 30.1448C0.679274 30.0006 0.557878 29.9321 0.465139 29.8465C0.439236 29.8237 0.418146 29.7958 0.403151 29.7645C0.388155 29.7331 0.379568 29.699 0.377912 29.6641C0.376257 29.6293 0.381566 29.5944 0.393519 29.5618C0.405472 29.5291 0.423817 29.4992 0.44744 29.474C0.615501 29.2446 0.787295 29.018 0.971014 28.7722C0.736249 28.7321 0.464991 28.7294 0.62707 28.3638C0.678484 28.2478 0.587936 28.1563 0.516212 28.0723C0.420937 27.975 0.33325 27.8703 0.253948 27.7591C0.127567 27.5526 0.046075 27.2887 0.171767 27.0932C0.303719 26.8879 0.504819 27.1251 0.678394 27.1451C0.742005 27.1524 0.805728 27.1588 0.89007 27.1678C0.888547 26.9149 0.681861 26.7562 0.721192 26.4965C0.743118 26.3517 0.495802 26.2531 0.304706 26.2505C0.277273 26.2521 0.249806 26.2481 0.22392 26.2387C0.198035 26.2293 0.17425 26.2147 0.153962 26.1958C0.133674 26.1769 0.117291 26.154 0.105774 26.1285C0.0942576 26.1031 0.0878407 26.0755 0.0868968 26.0475C0.0763029 25.8926 0.180558 25.931 0.281509 25.9498C0.399733 25.9718 0.368623 25.8806 0.340242 25.824C0.193125 25.531 0.351924 25.4149 0.600241 25.3679C0.897427 25.3117 0.878622 24.8253 1.25432 24.9136C1.26016 24.6997 1.05551 24.7186 0.99596 24.6006C1.0135 24.4677 1.06358 24.3711 1.21362 24.3514C1.34896 24.3336 1.35173 24.2359 1.2967 24.1399C1.23101 24.0253 1.13044 23.9931 1.03373 24.0974C0.907876 24.1997 0.818839 24.3418 0.780574 24.5013C0.599681 24.6816 0.413872 24.8026 0.209538 24.5347C0.0478246 24.3227 0.0997486 23.8687 0.320461 23.7661C0.605672 23.6334 0.964933 23.6091 0.803738 23.1117C0.75545 22.9627 0.986086 22.9586 1.10944 22.9166C1.22204 22.8782 1.35777 22.844 1.34871 22.6807C1.33872 22.5005 1.19663 22.4755 1.0605 22.4514C0.904594 22.4238 0.733141 22.4721 0.567513 22.3321C0.712843 22.2182 0.882078 22.1403 1.06192 22.1044C1.32887 22.0249 1.37268 21.8972 1.13537 21.7194C0.856474 21.5104 0.863332 21.3215 1.17877 21.1711C1.23605 21.1514 1.28748 21.1172 1.32824 21.0716C1.36899 21.0261 1.39773 20.9707 1.41176 20.9107C1.53024 20.2605 2.04275 20.1084 2.55766 19.9593C2.70287 19.9312 2.84635 19.8944 2.98737 19.8493C3.16319 19.7663 3.35613 19.7282 3.5496 19.7381C3.74306 19.7481 3.93126 19.8058 4.09801 19.9065C4.51536 20.1277 5.01029 20.3675 5.50226 19.9963C5.52542 19.9845 5.55099 19.9785 5.57687 19.9789C5.60274 19.9792 5.62816 19.9858 5.65103 19.9981C6.01985 20.2488 6.37142 20.1083 6.73402 19.9751C6.98524 19.8682 7.26156 19.8383 7.52919 19.889C7.60458 19.9067 7.69552 19.9458 7.68194 20.0496C7.67082 20.1347 7.57995 20.1173 7.52098 20.1407C7.33608 20.2141 7.12111 20.1122 6.93921 20.2265C6.9696 20.3754 7.07727 20.3763 7.1629 20.3667C7.67363 20.3209 8.18811 20.3469 8.69191 20.444C9.29796 20.5456 9.89993 20.4469 10.5026 20.3688C11.3235 20.2914 12.1483 20.264 12.9724 20.2867Z" fill="#CA5597"/>
<path d="M12.3869 31.728C13.0888 31.764 13.7781 31.6094 14.4656 31.5234C15.2468 31.4257 16.0736 31.409 16.7899 31.0462C17.2737 30.8227 17.8009 30.7147 18.3317 30.7303C18.6319 30.7225 18.6662 30.6253 18.5156 30.3667C18.4686 30.286 18.5073 30.2393 18.832 29.9844C19.0147 29.9576 19.1971 29.9281 19.3803 29.905C19.4852 29.8918 19.6684 29.8629 19.6753 29.9473C19.7041 30.2992 19.9049 30.2133 20.1207 30.1941C20.228 30.1846 20.3091 30.2944 20.3752 30.4132C20.6288 30.8692 20.6384 31.4272 20.9989 31.8466C21.0374 31.8928 21.0653 31.9472 21.0807 32.0058C21.096 32.0644 21.0983 32.1258 21.0875 32.1855C21.0767 32.2451 21.053 32.3016 21.0181 32.3507C20.9832 32.3999 20.9381 32.4405 20.8859 32.4696C20.8319 32.8088 20.8999 32.8414 21.3671 32.7001C21.7118 32.6589 21.943 32.7252 21.8253 33.1667C21.8197 33.2608 21.8313 33.355 21.8593 33.4448C22.015 33.6782 22.2421 33.493 22.4301 33.5449C22.6074 33.5938 22.8655 33.5507 22.7399 33.8831C22.7748 34.0113 22.8458 34.0804 22.9755 34.0067C23.0453 33.9671 23.1018 33.8987 23.1911 33.9103C23.3855 33.9356 23.8401 34.8502 23.7021 34.9762C22.8252 35.7774 22.6297 37.0213 21.8515 37.8908C21.3715 38.4272 20.9647 39.0319 20.525 39.6059C19.0815 41.046 17.5627 42.4067 16.1676 43.898C15.6334 44.469 14.983 44.8909 14.3825 45.3775C13.7108 45.9509 13.1933 46.6893 12.8789 47.5233C12.7544 47.8259 12.6154 48.0469 12.245 48.1088C11.9755 48.1538 11.9304 48.0869 12.0157 47.8833C12.1248 47.6229 12.0242 47.6184 11.8133 47.6236C11.5952 47.629 11.3819 47.6823 11.1561 47.5273C10.9512 47.3868 10.9018 47.6318 10.8782 47.7901C10.8628 47.8931 10.922 48.0297 10.7616 48.0464C10.7071 48.0512 10.6524 48.0412 10.6029 48.0174C10.5535 47.9936 10.5112 47.9568 10.4802 47.9108C10.405 47.7919 10.4625 47.6813 10.5621 47.5838C10.6344 47.5132 10.8026 47.4922 10.7591 47.357C10.7135 47.2153 10.5596 47.2596 10.4413 47.2444C10.397 47.2441 10.3532 47.234 10.3131 47.2146C10.273 47.1953 10.2376 47.1672 10.2092 47.1324C10.1809 47.0976 10.1604 47.0569 10.1491 47.0131C10.1378 46.9694 10.136 46.9236 10.1439 46.8791C10.1507 46.6382 10.1077 46.3986 10.0177 46.1758C9.82505 46.2877 9.63231 46.4101 9.51218 46.0786C9.45157 45.9114 9.28907 45.9671 9.15697 45.9891C9.01199 45.9643 8.86901 45.9284 8.72922 45.882C8.55582 45.8111 8.35881 45.712 8.33159 45.5136C8.29994 45.2829 8.55621 45.2865 8.68784 45.1905C8.74967 45.1454 8.84593 45.1428 8.84538 45.0127C8.48872 44.9038 8.19914 44.4316 7.73375 44.8437C7.60635 44.9565 7.48341 44.8475 7.51504 44.6542C7.67785 44.5602 7.68475 44.533 7.58335 44.5062C7.2788 44.4256 7.26594 44.2498 7.40525 44.0151C7.56061 43.7533 7.31394 43.4305 7.54485 43.2048C7.47622 43.0581 7.39658 43.1596 7.32771 43.159C7.1267 43.1574 6.98772 43.1125 7.13729 42.8715C7.18197 42.7995 7.23739 42.728 7.13528 42.6657C7.08924 42.6366 7.0357 42.6223 6.98161 42.6247C6.87457 42.6359 6.86649 42.7276 6.87288 42.8117C6.87923 42.9356 6.89456 43.0589 6.91875 43.1805C6.9566 43.3484 6.99221 43.5345 6.83373 43.631C6.76536 43.6776 6.68363 43.6995 6.60162 43.6932C6.51961 43.6869 6.44205 43.6527 6.38132 43.5961C6.22806 43.4465 6.02991 43.3084 6.10894 43.0434C6.1504 42.927 6.20165 42.8145 6.26212 42.7071C6.32819 42.5743 6.31339 42.4556 6.17867 42.3928C5.89509 42.2606 5.93213 42.0815 6.07779 41.8666C6.15054 41.7593 6.19436 41.6256 6.07239 41.5329C6.02118 41.4978 5.95901 41.4832 5.89792 41.4922C5.83683 41.5011 5.78116 41.5329 5.7417 41.5813C5.68997 41.624 5.63314 41.6598 5.57258 41.6879C5.50701 41.722 5.43709 41.8124 5.36435 41.7248C5.33994 41.6912 5.32866 41.6497 5.33271 41.6081C5.33676 41.5666 5.35584 41.528 5.38623 41.5001C5.425 41.4445 5.46069 41.3867 5.49313 41.327C5.62672 41.1181 5.61072 40.9771 5.32792 41.0151C4.95456 41.0652 4.80487 40.9416 4.9369 40.5568C4.95584 40.4972 4.96139 40.4341 4.95312 40.372C4.94485 40.31 4.92298 40.2507 4.88914 40.1984C4.78364 40.0286 4.72921 39.8309 4.73257 39.6299C4.73593 39.4289 4.79694 39.2332 4.90806 39.0672C5.10646 38.7242 5.2686 38.3593 5.46742 38.0166C5.57944 37.8454 5.74819 37.7212 5.94271 37.6668C6.46221 37.4745 7.03109 37.3121 7.18019 36.639C7.19103 36.6148 7.20725 36.5935 7.22755 36.5768C7.24785 36.5601 7.27168 36.5485 7.29715 36.5428C7.72796 36.4721 7.84824 36.11 8.01686 35.7798C8.18284 35.4547 8.34101 35.105 8.76307 35.0429C8.83039 35.1526 8.72317 35.2109 8.69554 35.2939C8.62802 35.4966 8.21091 35.6058 8.40923 35.8017C8.52956 35.9206 8.75402 35.558 8.90674 35.3831C8.94268 35.3292 8.97153 35.2707 8.99254 35.2092C9.17827 34.9295 9.52001 34.8943 9.76759 34.677C10.4595 34.0694 10.9169 33.2675 11.5515 32.6198C11.8364 32.3291 12.1088 32.0257 12.3869 31.728Z" fill="#02A6DD"/>
<path d="M22.1859 18.6417C22.1672 18.3614 22.2131 18.0804 22.3202 17.8216C22.4967 17.3558 22.4864 16.8379 22.2914 16.3799C21.9876 15.8203 21.8191 15.1948 21.8002 14.5555C21.7987 14.1273 21.4316 13.765 21.1745 13.4115C20.976 13.1385 20.7666 12.9006 20.9132 12.5267C20.97 12.3819 20.8586 12.2765 20.7808 12.1616C20.6031 11.8989 20.331 11.7379 20.1304 11.502C20.2772 11.3012 20.2645 11.0639 20.2675 10.8343C20.2816 9.7295 20.318 8.62391 20.2919 7.51996C20.2672 6.47735 20.4325 5.45915 20.564 4.43485C20.6079 4.18973 20.6021 3.93803 20.5471 3.69526C20.3706 3.05161 20.3778 2.35839 20.032 1.75976C19.8392 1.42602 20.2162 1.2521 20.2711 0.984054C20.2774 0.953241 20.4018 0.976239 20.4405 1.0428C20.5001 1.14561 20.55 1.25433 20.6152 1.38235C20.8989 1.17506 21.0155 0.809019 21.3878 0.725762C21.5046 0.699653 21.4472 0.485357 21.3496 0.369872C21.2818 0.28973 21.1697 0.212026 21.2893 0.0951385C21.322 0.059579 21.3624 0.0323499 21.4072 0.0156498C21.4521 -0.00105037 21.5001 -0.00675318 21.5476 -0.000998995C21.5749 0.00253575 21.6012 0.0117319 21.6249 0.0260253C21.6486 0.0403188 21.6692 0.0594077 21.6855 0.0821196C21.7017 0.104831 21.7132 0.130687 21.7193 0.158099C21.7253 0.185511 21.7259 0.213899 21.7208 0.241523C21.6401 0.709231 21.7238 0.767387 22.0631 0.421573C22.1729 0.309579 22.3345 0.37247 22.4664 0.481673C22.6537 0.636773 22.8583 0.77022 23.1002 0.94524C23.114 0.633675 23.222 0.480761 23.526 0.611312C23.6595 0.668602 23.7434 0.53098 23.8291 0.44717C23.939 0.30598 24.0877 0.201403 24.2561 0.146774C24.425 0.112924 24.6151 0.00380848 24.7557 0.158152C24.8699 0.283449 24.7552 0.441474 24.7128 0.581729C24.6856 0.671758 24.6267 0.776465 24.7166 0.848403C24.7902 0.907284 24.8616 0.804327 24.9354 0.792739C25.288 0.737323 25.587 0.635944 25.5998 0.187605C25.6024 0.0974103 25.7708 0.0487485 25.7745 0.0672871C25.8494 0.451622 26.4879 0.0999377 26.4655 0.63418C26.458 0.812346 26.7088 0.869414 26.847 0.975361C26.8655 1.05681 26.9021 1.17852 26.9901 1.11738C27.1938 0.97601 27.3371 0.893537 27.4194 1.23082C27.4472 1.34479 27.5746 1.32386 27.6577 1.2608C27.6791 1.2491 27.6971 1.23196 27.7101 1.21103C27.723 1.1901 27.7304 1.16611 27.7316 1.1414C27.7327 1.11668 27.7276 1.09209 27.7166 1.07C27.7057 1.04792 27.6893 1.0291 27.6691 1.01539C27.5359 0.900761 27.3823 0.810068 27.2529 0.691566C27.0284 0.486061 27.0629 0.269135 27.334 0.143974C27.4214 0.110555 27.5109 0.0835865 27.6021 0.063277C27.6473 0.0655205 27.6925 0.0677527 27.7378 0.0699732C27.7916 0.109016 27.8768 0.137243 27.8939 0.1889C28.0441 0.644012 28.371 0.848337 28.8172 0.895223C28.8266 1.0915 28.825 1.32629 29.0931 1.30395C29.3323 1.28401 29.2846 1.048 29.307 0.876953C29.3204 0.774508 29.2785 0.651743 29.4071 0.577654C29.5304 0.702114 29.6084 0.865746 29.6283 1.04155C29.7016 1.30111 29.8059 1.38904 29.9947 1.13782C30.2191 0.839293 30.409 0.851905 30.5517 1.2007C30.6281 1.38775 30.7992 1.4029 30.9444 1.45542C31.1076 1.50176 31.2553 1.59282 31.3713 1.71872C31.4873 1.84462 31.5674 2.00055 31.6027 2.16958C31.679 2.50292 31.7911 2.82813 31.8953 3.1543C31.9439 3.30208 31.9616 3.45859 31.9474 3.61378C31.9332 3.76897 31.8873 3.91941 31.8128 4.05546C31.5933 4.52085 31.3414 5.03406 31.6855 5.57276C31.6979 5.59555 31.7049 5.62094 31.7061 5.64697C31.7073 5.673 31.7027 5.69896 31.6924 5.72284C31.4547 6.09974 31.5967 6.45615 31.7157 6.82852C31.8022 7.09883 31.8896 7.38665 31.7778 7.67693C31.7426 7.76836 31.7113 7.9261 31.566 7.76424C31.5607 7.62725 31.563 7.48931 31.5475 7.35349C31.535 7.2442 31.6151 7.05836 31.4458 7.052C31.2942 7.04632 31.3223 7.23862 31.3034 7.35025C31.2943 7.44559 31.302 7.54183 31.3261 7.63441C31.4023 7.92665 31.3786 8.23664 31.259 8.51331L31.2569 8.51832C31.1959 8.5709 31.216 8.62131 31.2609 8.67104C31.1141 10.0645 31.5148 11.4372 31.4117 12.8293C31.3844 13.198 31.4886 13.6176 31.0038 13.7871C30.9569 13.8035 30.9198 13.8951 30.9064 13.9581C30.8067 14.4246 30.7088 14.8916 30.6231 15.3609C30.6012 15.481 30.6388 15.6279 30.5156 15.6969C29.8343 16.0785 29.7637 16.8373 29.4817 17.4572C29.2822 17.8864 28.9385 18.2283 28.513 18.421C28.1401 18.6088 27.8254 18.8508 27.6866 19.2728C27.5082 19.2666 27.3207 19.3163 27.1631 19.1837C26.7597 19.0738 26.3511 19.1384 25.9442 19.1452L25.8331 19.1363C25.8066 19.0816 25.7646 19.0363 25.7125 19.0065C25.6603 18.9766 25.6006 18.9635 25.5411 18.9689C25.2185 18.9439 24.8893 18.9105 24.9029 18.4442C24.9059 18.3952 24.8914 18.3467 24.8621 18.3077C24.8328 18.2688 24.7906 18.242 24.7433 18.2324C24.7028 18.228 24.6619 18.2359 24.6259 18.2553C24.5898 18.2746 24.5601 18.3044 24.5407 18.341C24.4623 18.4514 24.4117 18.5841 24.3253 18.6863C24.1953 18.8402 24.0527 18.9571 23.8638 18.737C23.5213 18.338 23.5163 18.3425 23.125 18.7021C22.8223 18.5151 22.4982 18.6737 22.1859 18.6417Z" fill="#58B9A7"/>
<path d="M27.163 19.1837C27.3207 19.3163 27.5081 19.2666 27.6865 19.2728C28.1456 19.2826 28.6048 19.2877 29.0635 19.3065C29.1465 19.3099 29.3399 19.2635 29.1928 19.4916C29.0635 19.6919 29.2998 19.6757 29.3795 19.7024C29.7915 19.8401 30.2099 19.9531 30.6191 20.1062C30.9193 20.2184 30.9566 20.3611 30.8625 20.6287C30.7423 20.9706 30.5027 21.3206 30.6381 21.6781C30.7342 21.912 30.7705 22.167 30.7437 22.4191C30.7017 22.7729 30.8103 23.1477 30.5018 23.4663C30.2866 23.6887 30.4442 24.2618 30.6908 24.469C30.8856 24.6326 30.8134 24.8414 30.7307 25.0323C30.6948 25.1037 30.6409 25.164 30.5746 25.207C30.2422 25.4359 30.0843 25.6884 30.3757 26.077C30.4841 26.2215 30.4466 26.4288 30.4103 26.6012C30.2744 27.2472 30.0695 27.8765 30.099 28.5557C30.1127 28.8688 30.065 29.1084 30.3972 29.3432C30.7848 29.6172 30.7129 30.6114 30.3262 30.9507C30.1363 31.1375 30.0149 31.3849 29.982 31.6519C29.9182 31.938 29.9649 32.2504 29.6667 32.4458C29.6175 32.478 29.6414 32.6264 29.6315 32.7211C29.4922 32.8067 29.3528 32.8924 29.2135 32.9781C29.0521 33.0406 28.9023 33.1305 28.7704 33.2442C28.5219 33.5508 28.2965 33.4456 28.1269 33.2121C27.9129 32.9175 27.7625 33.0594 27.5874 33.2251L27.0451 33.2067C26.8563 33.064 26.6336 32.9751 26.4 32.9492C26.1178 32.8958 25.8689 32.6805 25.5923 32.5701C25.3071 32.4562 25.0085 32.2247 24.7263 32.6215C24.6402 32.7426 24.4802 32.6534 24.3826 32.5409C24.2549 32.3459 24.1686 32.1047 23.876 32.402C23.783 32.4804 23.6752 32.5385 23.5593 32.5726C23.4434 32.6068 23.3219 32.6163 23.2022 32.6006C22.9881 32.5888 22.796 32.6601 22.8162 32.9372C22.8352 33.1978 22.6939 33.2006 22.5127 33.1582C22.3915 33.1298 22.2148 33.0101 22.1832 33.2136C22.1469 33.4473 21.968 33.3736 21.8593 33.4449C21.8312 33.3552 21.8197 33.2609 21.8253 33.1669C21.943 32.7254 21.7118 32.659 21.3672 32.7003C21.3151 32.6469 21.6129 32.6651 21.3891 32.5599C21.2225 32.4815 21.0356 32.5941 20.8859 32.4697C20.938 32.4406 20.9832 32.4 21.0181 32.3509C21.053 32.3017 21.0767 32.2453 21.0875 32.1856C21.0983 32.126 21.096 32.0646 21.0806 32.006C21.0653 31.9473 21.0373 31.8929 20.9988 31.8467C20.6383 31.4273 20.6288 30.8694 20.3751 30.4133C20.3091 30.2945 20.228 30.1848 20.1207 30.1943C19.9048 30.2134 19.7041 30.2993 19.6753 29.9475C19.6684 29.8631 19.4851 29.892 19.3802 29.9052C19.197 29.9283 19.0146 29.9577 18.8319 29.9845C18.731 29.8041 18.7442 29.5275 18.4463 29.5045C18.4392 29.504 18.2548 29.3566 18.3944 29.2873C18.8222 29.0747 18.4966 28.8857 18.3707 28.7393C18.035 28.3491 18.0235 28.36 18.4022 28.0163C18.509 27.9194 18.6527 27.834 18.5269 27.6543C18.6298 27.4599 18.3012 27.1862 18.4634 27.1461C18.9112 27.0354 18.5719 26.8331 18.5695 26.6738C18.6329 26.2549 18.8428 25.8919 18.995 25.5066C19.1149 25.2029 19.3842 24.8793 18.9234 24.6216C19.156 23.9615 18.3109 23.9189 18.2459 23.4101C18.237 23.2987 18.2121 23.1892 18.1718 23.0852C18.3635 22.8388 18.2512 22.5954 18.0942 22.315C18.6178 22.3948 18.727 22.1798 18.6381 21.7535C18.5646 21.4011 18.8402 21.4289 19.0555 21.4379C19.5398 21.4581 19.6338 21.332 19.4666 20.8512C19.4206 20.7188 19.3464 20.581 19.488 20.4794C19.6109 20.3913 19.7115 20.4834 19.8046 20.5735C19.8712 20.6351 19.9568 20.6711 20.0466 20.6755C20.1364 20.6799 20.225 20.6523 20.2971 20.5975C20.7269 20.2716 21.2591 20.2084 21.7196 19.9679C21.9095 19.8688 22.033 19.7642 21.9861 19.5271C21.9733 19.4623 21.9759 19.3394 22.0018 19.33C22.3933 19.1871 22.1962 18.8895 22.1857 18.6418C22.4982 18.6738 22.8223 18.5151 23.1251 18.7017C23.2817 18.9481 23.5356 18.7638 23.7397 18.8434C24.0558 18.9911 24.3884 19.0988 24.73 19.1642C25.0976 19.1974 25.4676 19.1881 25.833 19.1363C25.8701 19.1393 25.9071 19.1422 25.9436 19.1452C26.3461 19.2176 26.7568 19.2306 27.163 19.1837Z" fill="#FCEC03"/>
</g>
<defs>
<clipPath id="clip0_431_741">
<rect width="32" height="52" fill="white"/>
</clipPath>
</defs>
</svg>
