<svg viewBox="0 0 93 54" fill='none' xmlns="http://www.w3.org/2000/svg">
<g clip-path="url(#clip0_387_2800)">
<path d="M30.2947 33.7998C30.4689 33.8278 30.6313 33.9072 30.7618 34.0282C30.8071 34.0795 30.8468 34.1542 30.9179 34.0834C31.2426 33.7603 31.2033 34.1198 31.2703 34.277C31.2772 34.3037 31.2802 34.3313 31.2792 34.3589C31.3309 34.8983 31.3599 35.4154 31.6132 35.9415C31.8988 36.5348 31.8909 37.2513 32.0054 37.9156C32.3342 39.8239 32.1901 41.7414 32.1316 43.6558C32.0978 44.7592 32.2121 45.8644 32.0828 46.9651C32.0411 47.3202 31.9837 47.6738 31.9234 48.0263C31.7408 49.0944 31.9657 50.1096 32.3816 51.0718C32.5506 51.4627 32.2533 51.6491 32.1993 51.9342C32.185 52.0093 32.048 51.971 32.0006 51.9005C31.9348 51.7897 31.8754 51.6751 31.8228 51.5572C31.5325 51.7492 31.4304 52.1475 31.0326 52.2069C30.9077 52.2255 30.9579 52.46 31.0814 52.5472C31.3437 52.7324 31.2004 52.8412 31.0264 52.9547H30.7827C30.7653 52.8103 30.6493 52.6785 30.7438 52.5186C30.7875 52.4448 30.7902 52.353 30.6865 52.3166C30.6478 52.3022 30.6054 52.3024 30.5669 52.3171C30.5283 52.3318 30.4961 52.3601 30.4762 52.3968C30.2937 52.678 30.1155 52.595 29.9108 52.4126C29.7411 52.2613 29.5443 52.1418 29.3393 51.9936C29.3175 52.2738 29.2523 52.4938 28.9039 52.3123C28.788 52.2519 28.719 52.3918 28.6394 52.4607C28.5385 52.5711 28.4227 52.6663 28.2955 52.7435C28.1014 52.8286 27.8607 52.9429 27.6795 52.7867C27.5154 52.6453 27.7127 52.4631 27.7457 52.2981C27.7613 52.2203 27.8066 52.1411 27.7265 52.0485C27.522 52.0986 27.3452 52.2484 27.099 52.2375C26.9498 52.231 26.896 52.4642 26.8732 52.6349C26.8562 52.7623 26.8194 52.894 26.6564 52.8776C26.4272 52.8546 26.6632 52.6723 26.5574 52.5802C26.241 52.7969 26.0739 52.707 25.9819 52.3155C25.9203 52.0534 25.4944 52.0167 25.5455 51.6459C25.3405 51.7117 25.1938 52.3719 24.9934 51.6804C24.9659 51.5856 24.8502 51.6215 24.7853 51.6688C24.7193 51.7167 24.6573 51.7964 24.7392 51.8746C24.8366 51.9676 24.9524 52.0402 25.0574 52.1251C25.2017 52.2418 25.4121 52.332 25.3319 52.5747C25.3075 52.6551 25.2582 52.7252 25.1913 52.7745C25.1244 52.8238 25.0436 52.8495 24.9611 52.8478C24.7432 52.8503 24.5178 52.8562 24.4118 52.5998C24.3693 52.4992 24.3325 52.3962 24.3017 52.2912C24.2591 52.142 24.1589 52.0785 24.0262 52.1341C23.7298 52.2583 23.6401 52.1056 23.5943 51.8441C23.5738 51.727 23.5354 51.5747 23.3807 51.5869C23.1982 51.6012 23.1561 51.7532 23.1448 51.9177C23.1596 52.0871 23.1205 52.2569 23.0334 52.4018C22.8724 52.2494 22.8569 52.0364 22.7967 51.8474C22.7149 51.5906 22.6215 51.5828 22.449 51.7822C22.1635 52.1119 22.0959 52.1033 21.8791 51.725C21.8552 51.6765 21.8208 51.6343 21.7784 51.6015C21.7361 51.5687 21.687 51.5462 21.6349 51.5357C21.0597 51.407 20.8528 50.9588 20.7236 50.4419C20.667 50.2156 20.6171 49.9861 20.5413 49.7663C20.4908 49.6186 20.4719 49.4615 20.4859 49.3056C20.4999 49.1498 20.5464 48.9988 20.6223 48.8628C20.8392 48.3978 21.1097 47.8944 20.7385 47.3613C20.7268 47.3376 20.7208 47.3114 20.7212 47.2849C20.7215 47.2584 20.728 47.2324 20.7403 47.209C21.0172 46.8189 20.8409 46.4446 20.7106 46.0685C20.624 45.8204 20.5978 45.5545 20.6343 45.2937C20.6453 45.2132 20.6806 45.1183 20.7695 45.111C20.8824 45.1017 20.8773 45.2135 20.8874 45.2896C20.907 45.4913 20.9402 45.6913 20.9868 45.8883C21.3315 44.1284 21.1081 42.3666 21.0251 40.606C21.4648 40.032 21.8716 39.4273 22.3517 38.8909C23.1298 38.0214 23.3253 36.7775 24.2022 35.9763C24.3402 35.8503 23.8856 34.9357 23.6912 34.9104C23.6019 34.8988 23.5455 34.9672 23.4756 35.0068C23.3459 35.0805 23.2749 35.0114 23.2399 34.8831C23.5878 34.803 23.8181 34.5048 24.148 34.382C24.5298 34.2398 24.6418 33.8262 24.8826 33.5409C24.9804 33.6534 25.1403 33.7426 25.2265 33.6214C25.5087 33.2246 25.8072 33.4561 26.0925 33.57C26.3691 33.6804 26.618 33.8958 26.9001 33.9492C27.1338 33.9751 27.3564 34.0639 27.5453 34.2067C27.5283 34.3837 27.4916 34.6275 27.6632 34.6817C27.8775 34.7495 27.9452 34.4922 28.0381 34.3345C28.0566 34.299 28.0731 34.2624 28.0876 34.225C28.2627 34.0593 28.4131 33.9174 28.627 34.212C28.7966 34.4456 29.022 34.5508 29.2706 34.2441C29.4024 34.1305 29.5523 34.0405 29.7136 33.978C29.8778 34.0325 29.7587 34.3199 29.9324 34.3102C30.1011 34.3007 30.0512 34.0653 30.139 33.9529C30.1716 33.9112 30.1977 33.8643 30.2267 33.8197L30.2233 33.8217C30.2361 33.8242 30.2492 33.8235 30.2616 33.8196C30.2741 33.8158 30.2854 33.809 30.2947 33.7998Z" fill="#6B3888"/>
<path d="M12.4935 5.23997C12.6958 5.09009 12.9387 5.00805 13.1887 5.0052C13.4387 5.00235 13.6834 5.07884 13.889 5.22407C14.1511 5.38862 14.427 5.53049 14.6963 5.6831C14.929 5.82143 15.099 6.0475 15.1698 6.31257C15.3427 6.82347 15.515 7.36259 16.1392 7.50498C16.1733 7.51277 16.2227 7.54859 16.2276 7.57793C16.3327 8.2005 16.9081 8.2539 17.3109 8.51525C17.3178 8.55053 17.3361 8.58242 17.3629 8.60582C17.3897 8.62922 17.4234 8.64277 17.4586 8.6443L17.5274 8.69055C17.5569 8.82094 17.7821 8.94797 17.6171 9.06571C17.4903 9.15628 17.3639 8.98709 17.2682 8.86927C17.1963 8.78088 17.1284 8.66749 16.9368 8.71107C17.0938 9.14904 17.4969 9.3145 17.7844 9.58942L17.7986 9.68035C17.8424 10.0898 18.2562 10.1999 18.4355 10.4996C18.5857 10.7966 18.8781 10.9371 19.121 11.1255C19.6545 11.5484 20.1589 12.0083 20.6305 12.5019C20.8311 12.7378 21.1032 12.8989 21.2809 13.1615C21.3587 13.2764 21.47 13.3818 21.4133 13.5266C21.2667 13.9006 21.4761 14.1385 21.6745 14.4114C21.9317 14.7649 22.2988 15.1272 22.3003 15.5554C22.3192 16.1947 22.4877 16.8202 22.7915 17.3798C22.9865 17.8378 22.9968 18.3557 22.8203 18.8215C22.7133 19.0804 22.6672 19.3613 22.6858 19.6417C22.6964 19.8893 22.8935 20.187 22.5019 20.3299C22.476 20.3393 22.4735 20.4622 22.4863 20.5269C22.5332 20.7641 22.4097 20.8687 22.2198 20.9678C21.7592 21.2083 21.2271 21.2715 20.7973 21.5974C20.7251 21.6522 20.6366 21.6797 20.5468 21.6753C20.457 21.671 20.3714 21.6349 20.3047 21.5734C20.2116 21.4833 20.1111 21.3911 19.9882 21.4793C19.8466 21.5809 19.9208 21.7187 19.9668 21.851C20.134 22.3318 20.0399 22.458 19.5557 22.4378C19.3404 22.4288 19.0647 22.4009 19.1382 22.7533C19.2272 23.1797 19.118 23.3947 18.5944 23.3148C18.7514 23.5953 18.8637 23.8387 18.672 24.085C18.4758 24.1094 18.2674 24.0907 18.1437 24.3085C18.0309 24.507 17.9043 24.4619 17.7555 24.3269C17.505 24.0891 17.2392 23.8688 16.9597 23.6675C16.7418 23.5456 16.5163 23.4383 16.2847 23.3463C15.237 22.817 14.3981 21.9899 13.4724 21.2865C12.4148 20.3065 11.4781 19.2066 10.4922 18.1555C9.98702 17.6169 9.47404 17.0869 8.92467 16.5947C8.54377 16.2239 8.21498 15.8011 7.94767 15.3383C7.31978 14.349 6.42145 13.714 5.38901 13.275C5.02795 13.1215 4.98209 12.8482 4.88033 12.5632C4.83982 12.4498 4.91864 12.4058 5.0042 12.4128C5.1277 12.4301 5.25002 12.4553 5.37045 12.4881C5.48553 12.1724 5.23241 11.8192 5.49621 11.5055C5.58499 11.3999 5.38625 11.2966 5.243 11.2802C5.13359 11.2678 4.97716 11.3372 4.9623 11.1444C4.95732 11.0884 4.96832 11.0321 4.99397 10.9824C5.01962 10.9326 5.05883 10.8915 5.10687 10.864C5.13683 10.8473 5.16994 10.8373 5.20399 10.8347C5.23803 10.832 5.27223 10.8369 5.30431 10.8488C5.33638 10.8608 5.36559 10.8795 5.38998 10.9039C5.41437 10.9283 5.43339 10.9577 5.44576 10.9902C5.4904 11.0687 5.53223 11.1877 5.65034 11.1489C5.7549 11.1146 5.76365 11.0066 5.75523 10.9043C5.73328 10.6377 5.86704 10.5175 6.11573 10.5281C6.34925 10.5159 6.58001 10.4708 6.80148 10.3943C6.69193 10.2003 6.59194 10.0082 6.87882 9.8868C7.01924 9.82737 6.98669 9.68143 7.00299 9.56121C7.01396 9.38285 7.04438 9.20629 7.09371 9.03482C7.15541 8.87004 7.26849 8.68224 7.44185 8.65417C7.63855 8.62232 7.65397 8.85763 7.73648 8.98774C7.78556 9.06514 7.80417 9.19522 7.92094 9.17833C8.00742 9.16583 7.99741 9.04367 8.03895 8.97941C8.24094 8.66694 8.37509 8.36673 8.06663 8.03408C8.0101 7.97312 8.14824 7.83213 8.15194 7.83572C8.46099 8.13686 8.45991 7.69871 8.61252 7.63979C8.64704 7.62646 8.70627 7.61919 8.72719 7.6389C9.03194 7.92589 9.44486 7.65094 9.7892 7.90324C9.79317 7.62604 9.63614 7.20421 10.1435 7.49323C10.224 7.5391 10.275 7.41749 10.2942 7.34037C10.321 7.23231 10.2486 7.18538 10.1582 7.18808C10.0232 7.18908 9.88864 7.203 9.75621 7.22963C9.57424 7.27074 9.38347 7.29554 9.28166 7.11566C9.23866 7.03545 9.22459 6.94238 9.24192 6.85268C9.25924 6.76297 9.30686 6.68231 9.37648 6.62475C9.52182 6.48147 9.6575 6.30849 9.89834 6.42011C9.99681 6.46575 10.0927 6.51712 10.1907 6.56378C10.3116 6.6213 10.4341 6.64589 10.4969 6.48911C10.6112 6.2034 10.7805 6.21097 11.0017 6.36161C11.1001 6.42856 11.229 6.50842 11.3355 6.39748C11.4719 6.25544 11.3603 6.12247 11.2793 5.9976C11.3234 5.79669 11.4735 5.85222 11.602 5.86083C11.7076 5.8679 11.8971 5.89118 11.8818 5.7926C11.7974 5.25061 12.1778 5.32067 12.4812 5.27763C12.4869 5.27684 12.4894 5.25304 12.4935 5.23997Z" fill="#43A83E"/>
<path d="M13.4724 21.2867C14.3981 21.9901 15.237 22.8172 16.2847 23.3464C16.5163 23.4385 16.7418 23.5458 16.9597 23.6676C17.2392 23.869 17.505 24.0893 17.7555 24.327C17.9043 24.4621 18.0309 24.5072 18.1437 24.3087C18.2674 24.0909 18.4758 24.1095 18.6719 24.0852C18.7122 24.1892 18.7372 24.2987 18.746 24.4101C18.811 24.9189 19.6562 24.9615 19.4236 25.6217C19.8844 25.8794 19.615 26.203 19.4951 26.5067C19.343 26.8919 19.1331 27.2549 19.0697 27.6738C19.0005 27.8432 18.9095 27.9615 18.6951 27.9294C18.5838 27.9127 18.4332 27.9303 18.4051 28.0784C18.3787 28.2173 18.5085 28.2864 18.6023 28.3569C18.7403 28.4606 18.885 28.555 19.0268 28.6534C19.1529 28.8341 19.0091 28.9195 18.9024 29.0163C18.5237 29.36 18.5352 29.3491 18.8709 29.7393C18.9968 29.8857 19.3223 30.0748 18.8946 30.2873C18.755 30.3566 18.9393 30.504 18.9464 30.5045C19.2444 30.5275 19.2311 30.8041 19.3322 30.9845C19.0074 31.2395 18.9688 31.2862 19.0158 31.3669C19.1664 31.6255 19.132 31.7227 18.8318 31.7304C18.301 31.7149 17.7738 31.8229 17.2901 32.0464C16.5738 32.4092 15.7469 32.4259 14.9657 32.5236C14.2782 32.6096 13.5889 32.7642 12.8871 32.7282C11.2258 32.6962 9.56725 32.5424 7.90339 32.6224C6.93015 32.6422 5.95764 32.5553 5.00258 32.3632C4.71036 32.3005 4.40798 32.3065 4.11836 32.3808C3.51489 32.559 2.85607 32.5358 2.30022 32.8817C1.95678 33.0954 1.77128 32.7147 1.49452 32.6756C1.43571 32.6673 1.49503 32.5226 1.56089 32.4768C1.66381 32.4119 1.76997 32.3525 1.87895 32.2989C1.69458 32.0066 1.3307 31.9044 1.24932 31.5146C1.2121 31.3363 1.00189 31.4476 0.892111 31.5634C0.828416 31.6306 0.775964 31.7462 0.668148 31.6726C0.618545 31.635 0.580927 31.5833 0.560015 31.524C0.539104 31.4646 0.535829 31.4003 0.550601 31.3391C0.573352 31.2042 0.692558 31.1886 0.798537 31.1706C0.904256 31.1526 1.03534 31.3249 1.11527 31.1448C1.17927 31.0006 1.05788 30.9321 0.965139 30.8465C0.939236 30.8237 0.918146 30.7958 0.903151 30.7645C0.888155 30.7331 0.879568 30.699 0.877912 30.6641C0.876257 30.6293 0.881566 30.5944 0.893519 30.5618C0.905472 30.5291 0.923817 30.4992 0.94744 30.474C1.1155 30.2446 1.2873 30.018 1.47101 29.7722C1.23625 29.7321 0.964991 29.7294 1.12707 29.3638C1.17848 29.2478 1.08794 29.1563 1.01621 29.0723C0.920937 28.975 0.83325 28.8703 0.753948 28.7591C0.627567 28.5526 0.546075 28.2887 0.671767 28.0932C0.803719 27.8879 1.00482 28.1251 1.17839 28.1451C1.242 28.1524 1.30573 28.1588 1.39007 28.1678C1.38855 27.9149 1.18186 27.7562 1.22119 27.4965C1.24312 27.3517 0.995802 27.2531 0.804706 27.2505C0.777273 27.2521 0.749806 27.2481 0.72392 27.2387C0.698035 27.2293 0.67425 27.2147 0.653962 27.1958C0.633674 27.1769 0.617291 27.154 0.605774 27.1285C0.594258 27.1031 0.587841 27.0755 0.586897 27.0475C0.576303 26.8926 0.680558 26.931 0.781509 26.9498C0.899733 26.9718 0.868623 26.8806 0.840242 26.824C0.693125 26.531 0.851924 26.4149 1.10024 26.3679C1.39743 26.3117 1.37862 25.8253 1.75432 25.9136C1.76016 25.6997 1.55551 25.7186 1.49596 25.6006C1.5135 25.4677 1.56358 25.3711 1.71362 25.3514C1.84896 25.3336 1.85173 25.2359 1.7967 25.1399C1.73101 25.0253 1.63044 24.9931 1.53373 25.0974C1.40788 25.1997 1.31884 25.3418 1.28057 25.5013C1.09968 25.6816 0.913872 25.8026 0.709538 25.5347C0.547825 25.3227 0.599749 24.8687 0.820461 24.7661C1.10567 24.6334 1.46493 24.6091 1.30374 24.1117C1.25545 23.9627 1.48609 23.9586 1.60944 23.9166C1.72204 23.8782 1.85777 23.844 1.84871 23.6807C1.83872 23.5005 1.69663 23.4755 1.5605 23.4514C1.40459 23.4238 1.23314 23.4721 1.06751 23.3321C1.21284 23.2182 1.38208 23.1403 1.56192 23.1044C1.82887 23.0249 1.87268 22.8972 1.63537 22.7194C1.35647 22.5104 1.36333 22.3215 1.67877 22.1711C1.73605 22.1514 1.78748 22.1172 1.82824 22.0716C1.86899 22.0261 1.89773 21.9707 1.91176 21.9107C2.03024 21.2605 2.54275 21.1084 3.05766 20.9593C3.20287 20.9312 3.34635 20.8944 3.48737 20.8493C3.66319 20.7663 3.85613 20.7282 4.0496 20.7381C4.24306 20.7481 4.43126 20.8058 4.59801 20.9065C5.01536 21.1277 5.51029 21.3675 6.00226 20.9963C6.02542 20.9845 6.05099 20.9785 6.07687 20.9789C6.10274 20.9792 6.12816 20.9858 6.15103 20.9981C6.51985 21.2488 6.87142 21.1083 7.23402 20.9751C7.48524 20.8682 7.76156 20.8383 8.02919 20.889C8.10458 20.9067 8.19552 20.9458 8.18194 21.0496C8.17082 21.1347 8.07995 21.1173 8.02098 21.1407C7.83608 21.2141 7.62111 21.1122 7.43921 21.2265C7.4696 21.3754 7.57727 21.3763 7.6629 21.3667C8.17363 21.3209 8.68811 21.3469 9.19191 21.444C9.79796 21.5456 10.3999 21.4469 11.0026 21.3688C11.8235 21.2914 12.6483 21.264 13.4724 21.2867Z" fill="#CA5597"/>
<path d="M12.8871 32.728C13.5889 32.764 14.2782 32.6094 14.9657 32.5234C15.7469 32.4257 16.5738 32.409 17.29 32.0462C17.7738 31.8227 18.301 31.7147 18.8318 31.7303C19.132 31.7225 19.1664 31.6253 19.0158 31.3667C18.9688 31.286 19.0074 31.2393 19.3321 30.9844C19.5148 30.9576 19.6972 30.9281 19.8804 30.905C19.9853 30.8918 20.1685 30.8629 20.1755 30.9473C20.2043 31.2992 20.405 31.2133 20.6208 31.1941C20.7281 31.1846 20.8092 31.2944 20.8753 31.4132C21.1289 31.8692 21.1385 32.4272 21.499 32.8466C21.5375 32.8928 21.5654 32.9472 21.5808 33.0058C21.5961 33.0644 21.5985 33.1258 21.5876 33.1855C21.5768 33.2451 21.5531 33.3016 21.5182 33.3507C21.4834 33.3999 21.4382 33.4405 21.386 33.4696C21.332 33.8088 21.4001 33.8414 21.8672 33.7001C22.2119 33.6589 22.4432 33.7252 22.3254 34.1667C22.3199 34.2608 22.3314 34.355 22.3594 34.4448C22.5151 34.6782 22.7423 34.493 22.9302 34.5449C23.1076 34.5938 23.3656 34.5507 23.24 34.8831C23.2749 35.0113 23.3459 35.0804 23.4756 35.0067C23.5455 34.9671 23.6019 34.8987 23.6912 34.9103C23.8856 34.9356 24.3402 35.8502 24.2023 35.9762C23.3254 36.7774 23.1298 38.0213 22.3517 38.8908C21.8716 39.4272 21.4648 40.0319 21.0252 40.6059C19.5816 42.046 18.0628 43.4067 16.6677 44.898C16.1335 45.469 15.4832 45.8909 14.8826 46.3775C14.2109 46.9509 13.6935 47.6893 13.379 48.5233C13.2545 48.8259 13.1155 49.0469 12.7452 49.1088C12.4757 49.1538 12.4305 49.0869 12.5158 48.8833C12.6249 48.6229 12.5243 48.6184 12.3134 48.6236C12.0953 48.629 11.882 48.6823 11.6562 48.5273C11.4514 48.3868 11.4019 48.6318 11.3783 48.7901C11.3629 48.8931 11.4221 49.0297 11.2617 49.0464C11.2073 49.0512 11.1525 49.0412 11.1031 49.0174C11.0536 48.9936 11.0113 48.9568 10.9803 48.9108C10.9051 48.7919 10.9626 48.6813 11.0623 48.5838C11.1345 48.5132 11.3027 48.4922 11.2592 48.357C11.2136 48.2153 11.0597 48.2596 10.9414 48.2444C10.8971 48.2441 10.8533 48.234 10.8133 48.2146C10.7732 48.1953 10.7377 48.1672 10.7094 48.1324C10.681 48.0976 10.6605 48.0569 10.6492 48.0131C10.6379 47.9694 10.6361 47.9236 10.644 47.8791C10.6508 47.6382 10.6079 47.3986 10.5178 47.1758C10.3252 47.2877 10.1324 47.4101 10.0123 47.0786C9.9517 46.9114 9.7892 46.9671 9.6571 46.9891C9.51211 46.9643 9.36913 46.9284 9.22934 46.882C9.05595 46.8111 8.85894 46.712 8.83171 46.5136C8.80006 46.2829 9.05633 46.2865 9.18796 46.1905C9.24979 46.1454 9.34605 46.1428 9.3455 46.0127C8.98884 45.9038 8.69926 45.4316 8.23388 45.8437C8.10647 45.9565 7.98353 45.8475 8.01516 45.6542C8.17797 45.5602 8.18487 45.533 8.08347 45.5062C7.77893 45.4256 7.76606 45.2498 7.90537 45.0151C8.06074 44.7533 7.81407 44.4305 8.04497 44.2048C7.97634 44.0581 7.89671 44.1596 7.82784 44.159C7.62682 44.1574 7.48784 44.1125 7.63742 43.8715C7.68209 43.7995 7.73751 43.728 7.6354 43.6657C7.58937 43.6366 7.53582 43.6223 7.48173 43.6247C7.3747 43.6359 7.36661 43.7276 7.373 43.8117C7.37935 43.9356 7.39468 44.0589 7.41887 44.1805C7.45672 44.3484 7.49234 44.5345 7.33386 44.631C7.26548 44.6776 7.18376 44.6995 7.10174 44.6932C7.01973 44.6869 6.94217 44.6527 6.88144 44.5961C6.72819 44.4465 6.53004 44.3084 6.60906 44.0434C6.65052 43.927 6.70177 43.8145 6.76224 43.7071C6.82831 43.5743 6.81351 43.4556 6.67879 43.3928C6.39521 43.2606 6.43225 43.0815 6.57792 42.8666C6.65067 42.7593 6.69448 42.6256 6.57251 42.5329C6.5213 42.4978 6.45913 42.4832 6.39804 42.4922C6.33695 42.5011 6.28128 42.5329 6.24183 42.5813C6.19009 42.624 6.13326 42.6598 6.0727 42.6879C6.00713 42.722 5.93721 42.8124 5.86447 42.7248C5.84007 42.6912 5.82879 42.6497 5.83283 42.6081C5.83688 42.5666 5.85596 42.528 5.88635 42.5001C5.92512 42.4445 5.96081 42.3867 5.99325 42.327C6.12684 42.1181 6.11084 41.9771 5.82804 42.0151C5.45468 42.0652 5.30499 41.9416 5.43702 41.5568C5.45597 41.4972 5.46151 41.4341 5.45324 41.372C5.44498 41.31 5.4231 41.2507 5.38926 41.1984C5.28376 41.0286 5.22933 40.8309 5.23269 40.6299C5.23605 40.4289 5.29706 40.2332 5.40818 40.0672C5.60658 39.7242 5.76872 39.3593 5.96754 39.0166C6.07957 38.8454 6.24832 38.7212 6.44283 38.6668C6.96233 38.4745 7.53121 38.3121 7.68031 37.639C7.69115 37.6148 7.70737 37.5935 7.72767 37.5768C7.74797 37.5601 7.7718 37.5485 7.79727 37.5428C8.22809 37.4721 8.34836 37.11 8.51698 36.7798C8.68296 36.4547 8.84114 36.105 9.26319 36.0429C9.33051 36.1526 9.22329 36.2109 9.19566 36.2939C9.12814 36.4966 8.71103 36.6058 8.90935 36.8017C9.02968 36.9206 9.25414 36.558 9.40686 36.3831C9.4428 36.3292 9.47165 36.2707 9.49266 36.2092C9.67839 35.9295 10.0201 35.8943 10.2677 35.677C10.9596 35.0694 11.417 34.2675 12.0516 33.6198C12.3365 33.3291 12.609 33.0257 12.8871 32.728Z" fill="#02A6DD"/>
<path d="M22.6861 19.6417C22.6673 19.3614 22.7132 19.0804 22.8203 18.8216C22.9968 18.3558 22.9865 17.8379 22.7915 17.3799C22.4877 16.8203 22.3193 16.1948 22.3003 15.5555C22.2988 15.1273 21.9317 14.765 21.6746 14.4115C21.4761 14.1385 21.2667 13.9006 21.4133 13.5267C21.4701 13.3819 21.3587 13.2765 21.2809 13.1616C21.1032 12.8989 20.8312 12.7379 20.6305 12.502C20.7773 12.3012 20.7647 12.0639 20.7676 11.8343C20.7817 10.7295 20.8181 9.62391 20.792 8.51996C20.7674 7.47735 20.9326 6.45915 21.0641 5.43485C21.108 5.18973 21.1022 4.93803 21.0472 4.69526C20.8708 4.05161 20.8779 3.35839 20.5321 2.75976C20.3393 2.42602 20.7163 2.2521 20.7712 1.98405C20.7775 1.95324 20.9019 1.97624 20.9406 2.0428C21.0003 2.14561 21.0501 2.25433 21.1153 2.38235C21.399 2.17506 21.5156 1.80902 21.888 1.72576C22.0047 1.69965 21.9473 1.48536 21.8497 1.36987C21.7819 1.28973 21.6698 1.21203 21.7895 1.09514C21.8221 1.05958 21.8625 1.03235 21.9073 1.01565C21.9522 0.99895 22.0003 0.993247 22.0477 0.999001C22.075 1.00254 22.1013 1.01173 22.125 1.02603C22.1488 1.04032 22.1694 1.05941 22.1856 1.08212C22.2018 1.10483 22.2133 1.13069 22.2194 1.1581C22.2255 1.18551 22.226 1.2139 22.2209 1.24152C22.1402 1.70923 22.2239 1.76739 22.5632 1.42157C22.673 1.30958 22.8346 1.37247 22.9665 1.48167C23.1539 1.63677 23.3584 1.77022 23.6003 1.94524C23.6141 1.63368 23.7221 1.48076 24.0261 1.61131C24.1596 1.6686 24.2435 1.53098 24.3292 1.44717C24.4391 1.30598 24.5878 1.2014 24.7562 1.14677C24.9251 1.11292 25.1152 1.00381 25.2558 1.15815C25.37 1.28345 25.2553 1.44147 25.2129 1.58173C25.1857 1.67176 25.1268 1.77646 25.2167 1.8484C25.2903 1.90728 25.3618 1.80433 25.4355 1.79274C25.7881 1.73732 26.0871 1.63594 26.1 1.18761C26.1025 1.09741 26.271 1.04875 26.2746 1.06729C26.3496 1.45162 26.9881 1.09994 26.9656 1.63418C26.9581 1.81235 27.2089 1.86941 27.3471 1.97536C27.3656 2.05681 27.4022 2.17852 27.4903 2.11738C27.6939 1.97601 27.8372 1.89354 27.9195 2.23082C27.9474 2.34479 28.0747 2.32386 28.1578 2.2608C28.1792 2.2491 28.1972 2.23196 28.2102 2.21103C28.2231 2.1901 28.2305 2.16611 28.2317 2.1414C28.2328 2.11668 28.2277 2.09209 28.2167 2.07C28.2058 2.04792 28.1894 2.0291 28.1693 2.01539C28.036 1.90076 27.8824 1.81007 27.753 1.69157C27.5285 1.48606 27.563 1.26913 27.8341 1.14397C27.9215 1.11055 28.0111 1.08359 28.1022 1.06328C28.1474 1.06552 28.1926 1.06775 28.2379 1.06997C28.2917 1.10902 28.377 1.13724 28.394 1.1889C28.5442 1.64401 28.8711 1.84834 29.3173 1.89522C29.3267 2.0915 29.3251 2.32629 29.5932 2.30395C29.8324 2.28401 29.7848 2.048 29.8071 1.87695C29.8206 1.77451 29.7786 1.65174 29.9072 1.57765C30.0305 1.70211 30.1085 1.86575 30.1284 2.04155C30.2017 2.30111 30.3061 2.38904 30.4948 2.13782C30.7192 1.83929 30.9092 1.8519 31.0518 2.2007C31.1283 2.38775 31.2993 2.4029 31.4446 2.45542C31.6078 2.50176 31.7554 2.59282 31.8714 2.71872C31.9875 2.84462 32.0675 3.00055 32.1028 3.16958C32.1791 3.50292 32.2912 3.82813 32.3954 4.1543C32.444 4.30208 32.4617 4.45859 32.4475 4.61378C32.4333 4.76897 32.3875 4.91941 32.3129 5.05546C32.0934 5.52085 31.8416 6.03406 32.1856 6.57276C32.198 6.59555 32.205 6.62094 32.2063 6.64697C32.2075 6.673 32.2028 6.69896 32.1926 6.72284C31.9548 7.09974 32.0968 7.45615 32.2159 7.82852C32.3023 8.09883 32.3898 8.38665 32.2779 8.67693C32.2427 8.76836 32.2114 8.9261 32.0661 8.76424C32.0608 8.62725 32.0632 8.48931 32.0476 8.35349C32.0351 8.2442 32.1153 8.05836 31.9459 8.052C31.7943 8.04632 31.8224 8.23862 31.8035 8.35025C31.7944 8.44559 31.8021 8.54183 31.8262 8.63441C31.9024 8.92665 31.8787 9.23664 31.7591 9.51331L31.757 9.51832C31.696 9.5709 31.7162 9.62131 31.761 9.67104C31.6142 11.0645 32.0149 12.4372 31.9118 13.8293C31.8845 14.198 31.9887 14.6176 31.5039 14.7871C31.457 14.8035 31.42 14.8951 31.4065 14.9581C31.3068 15.4246 31.2089 15.8916 31.1232 16.3609C31.1013 16.481 31.1389 16.6279 31.0157 16.6969C30.3344 17.0785 30.2639 17.8373 29.9819 18.4572C29.7823 18.8864 29.4386 19.2283 29.0131 19.421C28.6402 19.6088 28.3255 19.8508 28.1867 20.2728C28.0083 20.2666 27.8209 20.3163 27.6632 20.1837C27.2598 20.0738 26.8512 20.1384 26.4443 20.1452L26.3332 20.1363C26.3068 20.0816 26.2647 20.0363 26.2126 20.0065C26.1605 19.9766 26.1007 19.9635 26.0412 19.9689C25.7186 19.9439 25.3894 19.9105 25.403 19.4442C25.406 19.3952 25.3916 19.3467 25.3622 19.3077C25.3329 19.2688 25.2907 19.242 25.2435 19.2324C25.203 19.228 25.1621 19.2359 25.126 19.2553C25.0899 19.2746 25.0602 19.3044 25.0408 19.341C24.9625 19.4514 24.9118 19.5841 24.8255 19.6863C24.6954 19.8402 24.5528 19.9571 24.3639 19.737C24.0214 19.338 24.0164 19.3425 23.6252 19.7021C23.3225 19.5151 22.9984 19.6737 22.6861 19.6417Z" fill="#58B9A7"/>
<path d="M27.6631 20.1837C27.8208 20.3163 28.0083 20.2666 28.1866 20.2728C28.6457 20.2826 29.1049 20.2877 29.5637 20.3065C29.6467 20.3099 29.84 20.2635 29.6929 20.4916C29.5636 20.6919 29.7999 20.6757 29.8796 20.7024C30.2916 20.8401 30.71 20.9531 31.1192 21.1062C31.4194 21.2184 31.4567 21.3611 31.3626 21.6287C31.2424 21.9706 31.0028 22.3206 31.1383 22.6781C31.2343 22.912 31.2706 23.167 31.2438 23.4191C31.2018 23.7729 31.3104 24.1477 31.002 24.4663C30.7868 24.6887 30.9443 25.2618 31.191 25.469C31.3858 25.6326 31.3135 25.8414 31.2308 26.0323C31.1949 26.1037 31.1411 26.164 31.0747 26.207C30.7423 26.4359 30.5845 26.6884 30.8758 27.077C30.9842 27.2215 30.9467 27.4288 30.9105 27.6012C30.7745 28.2472 30.5696 28.8765 30.5992 29.5557C30.6128 29.8688 30.5652 30.1084 30.8973 30.3432C31.2849 30.6172 31.2131 31.6114 30.8263 31.9507C30.6365 32.1375 30.515 32.3849 30.4821 32.6519C30.4184 32.938 30.465 33.2504 30.1669 33.4458C30.1176 33.478 30.1415 33.6264 30.1316 33.7211C29.9923 33.8067 29.8529 33.8924 29.7136 33.9781C29.5522 34.0406 29.4024 34.1305 29.2705 34.2442C29.022 34.5508 28.7966 34.4456 28.627 34.2121C28.413 33.9175 28.2627 34.0594 28.0876 34.2251L27.5452 34.2067C27.3564 34.064 27.1337 33.9751 26.9001 33.9492C26.618 33.8958 26.3691 33.6805 26.0925 33.5701C25.8072 33.4562 25.5086 33.2247 25.2265 33.6215C25.1403 33.7426 24.9804 33.6534 24.8828 33.5409C24.755 33.3459 24.6687 33.1047 24.3761 33.402C24.2831 33.4804 24.1753 33.5385 24.0594 33.5726C23.9435 33.6068 23.822 33.6163 23.7024 33.6006C23.4882 33.5888 23.2961 33.6601 23.3163 33.9372C23.3353 34.1978 23.194 34.2006 23.0128 34.1582C22.8916 34.1298 22.7149 34.0101 22.6833 34.2136C22.647 34.4473 22.4681 34.3736 22.3594 34.4449C22.3314 34.3552 22.3198 34.2609 22.3254 34.1669C22.4431 33.7254 22.2119 33.659 21.8673 33.7003C21.8152 33.6469 22.113 33.6651 21.8893 33.5599C21.7226 33.4815 21.5358 33.5941 21.386 33.4697C21.4382 33.4406 21.4833 33.4 21.5182 33.3509C21.5531 33.3017 21.5768 33.2453 21.5876 33.1856C21.5984 33.126 21.5961 33.0646 21.5807 33.006C21.5654 32.9473 21.5375 32.8929 21.499 32.8467C21.1385 32.4273 21.1289 31.8694 20.8753 31.4133C20.8092 31.2945 20.7281 31.1848 20.6208 31.1943C20.405 31.2134 20.2042 31.2993 20.1754 30.9475C20.1685 30.8631 19.9852 30.892 19.8804 30.9052C19.6972 30.9283 19.5148 30.9577 19.3321 30.9845C19.2311 30.8041 19.2443 30.5275 18.9464 30.5045C18.9393 30.504 18.755 30.3566 18.8945 30.2873C19.3223 30.0747 18.9968 29.8857 18.8708 29.7393C18.5352 29.3491 18.5236 29.36 18.9024 29.0163C19.0091 28.9194 19.1528 28.834 19.027 28.6543C19.1299 28.4599 18.8013 28.1862 18.9635 28.1461C19.4113 28.0354 19.072 27.8331 19.0697 27.6738C19.133 27.2549 19.3429 26.8919 19.4951 26.5066C19.615 26.2029 19.8843 25.8793 19.4235 25.6216C19.6561 24.9615 18.811 24.9189 18.746 24.4101C18.7372 24.2987 18.7122 24.1892 18.6719 24.0852C18.8636 23.8388 18.7513 23.5954 18.5944 23.315C19.118 23.3948 19.2271 23.1798 19.1382 22.7535C19.0647 22.4011 19.3403 22.4289 19.5556 22.4379C20.0399 22.4581 20.134 22.332 19.9668 21.8512C19.9207 21.7188 19.8466 21.581 19.9881 21.4794C20.111 21.3913 20.2116 21.4834 20.3047 21.5735C20.3714 21.6351 20.4569 21.6711 20.5467 21.6755C20.6365 21.6799 20.7251 21.6523 20.7972 21.5975C21.227 21.2716 21.7592 21.2084 22.2197 20.9679C22.4096 20.8688 22.5331 20.7642 22.4862 20.5271C22.4734 20.4623 22.476 20.3394 22.5019 20.33C22.8935 20.1871 22.6963 19.8895 22.6858 19.6418C22.9983 19.6738 23.3224 19.5151 23.6252 19.7017C23.7819 19.9481 24.0358 19.7638 24.2398 19.8434C24.5559 19.9911 24.8885 20.0988 25.2302 20.1642C25.5977 20.1974 25.9677 20.1881 26.3332 20.1363C26.3702 20.1393 26.4072 20.1422 26.4437 20.1452C26.8463 20.2176 27.2569 20.2306 27.6631 20.1837Z" fill="#FCEC03"/>
</g>
<path d="M49.204 15H47.444V10.04H47.412C46.788 10.808 45.732 11.448 44.548 11.448C42.564 11.448 41.204 10.152 41.204 7.896V3.56H42.964V7.784C42.964 9.16 43.748 9.912 45.076 9.912C46.18 9.912 46.74 9.464 47.444 8.664V3.56H49.204V15ZM53.2398 15H51.4798V3.56H53.2398V12.312H53.2718L59.2078 3.56H60.9838V15H59.2078V6.264H59.1758L53.2398 15ZM68.045 15.224C64.797 15.224 62.701 12.728 62.701 9.288C62.701 5.832 64.813 3.336 68.061 3.336C70.925 3.336 72.701 5.16 72.973 7.448H71.133C70.925 6.328 70.221 4.856 68.029 4.856C65.501 4.856 64.541 7 64.541 9.272C64.541 11.56 65.501 13.704 68.029 13.704C70.237 13.704 71.021 12.232 71.133 10.84H72.973C72.717 13.384 70.925 15.224 68.045 15.224ZM78.6183 15H76.8423V5.08H73.1463V3.56H82.3142V5.08H78.6183V15ZM82.9825 15H81.1265L85.3825 3.56H87.2865L91.5745 15H89.6545L88.7105 12.248H83.9265L82.9825 15ZM86.3105 5.192L84.4545 10.76H88.2145L86.3425 5.192H86.3105ZM46.74 33H41.636V21.56H46.452C48.804 21.56 50.18 22.616 50.18 24.44C50.18 25.848 49.348 26.504 48.404 26.824V26.856C49.604 27.064 50.628 27.944 50.628 29.656C50.628 31.848 49.108 33 46.74 33ZM43.396 26.312H46.404C47.844 26.312 48.34 25.72 48.34 24.696C48.34 23.688 47.732 23.08 46.532 23.08H43.396V26.312ZM43.396 31.48H46.612C48.308 31.48 48.788 30.664 48.788 29.592C48.788 28.392 48.052 27.704 46.852 27.704H43.396V31.48ZM57.3639 33.224C53.9399 33.224 51.7479 30.712 51.7479 27.272C51.7479 23.832 53.9399 21.336 57.3639 21.336C60.7879 21.336 62.9799 23.832 62.9799 27.272C62.9799 30.712 60.7879 33.224 57.3639 33.224ZM57.3639 31.704C60.0679 31.704 61.1399 29.624 61.1399 27.272C61.1399 24.92 60.0679 22.856 57.3639 22.856C54.6599 22.856 53.5879 24.92 53.5879 27.272C53.5879 29.624 54.6599 31.704 57.3639 31.704ZM64.8839 35.08H63.2359V31.496H64.0679C64.9799 31.496 65.2359 30.68 65.3319 28.616L65.6519 21.56H72.5799V31.496H73.9079V35.08H72.2759V33.016H64.8839V35.08ZM66.3719 31.464V31.496H70.8199V23.08H67.3479L67.0279 29.272C66.9799 30.392 66.7399 31.016 66.3719 31.464ZM76.2481 33H74.3921L78.6481 21.56H80.5521L84.8401 33H82.9201L81.9761 30.248H77.1921L76.2481 33ZM79.5761 23.192L77.7201 28.76H81.4801L79.6081 23.192H79.5761ZM46.74 51H41.636V39.56H46.452C48.804 39.56 50.18 40.616 50.18 42.44C50.18 43.848 49.348 44.504 48.404 44.824V44.856C49.604 45.064 50.628 45.944 50.628 47.656C50.628 49.848 49.108 51 46.74 51ZM43.396 44.312H46.404C47.844 44.312 48.34 43.72 48.34 42.696C48.34 41.688 47.732 41.08 46.532 41.08H43.396V44.312ZM43.396 49.48H46.612C48.308 49.48 48.788 48.664 48.788 47.592C48.788 46.392 48.052 45.704 46.852 45.704H43.396V49.48ZM57.0919 51.224C53.8439 51.224 51.7479 48.728 51.7479 45.288C51.7479 41.832 53.8599 39.336 57.1079 39.336C59.9719 39.336 61.7479 41.16 62.0199 43.448H60.1799C59.9719 42.328 59.2679 40.856 57.0759 40.856C54.5479 40.856 53.5879 43 53.5879 45.272C53.5879 47.56 54.5479 49.704 57.0759 49.704C59.2839 49.704 60.0679 48.232 60.1799 46.84H62.0199C61.7639 49.384 59.9719 51.224 57.0919 51.224ZM65.3648 51H63.6048V39.56H65.3648V51ZM69.364 51H67.636V39.56H69.956L73.252 48.552H73.284L76.596 39.56H78.916V51H77.188V42.12H77.156L74.004 51H72.548L69.396 42.12H69.364V51Z" />
<defs>
<clipPath>
<rect width="32" height="52" transform="translate(0.5 1)"/>
</clipPath>
</defs>
</svg>
