<svg fill="none" xmlns="http://www.w3.org/2000/svg">
<mask id="mask0_387_2853" style="mask-type:alpha" maskUnits="userSpaceOnUse" x="0" y="0" width="123" height="123">
<g clip-path="url(#clip0_387_2853)">
<path d="M114.8 86.1H57.3999C52.8713 86.1 49.2 89.7712 49.2 94.2999V98.4H24.6C17.8098 98.3933 12.3067 92.8902 12.3 86.1V34.8501C12.3067 28.0598 17.8098 22.5568 24.6 22.5501H26.6499V26.4861C26.642 28.2136 27.6822 29.7734 29.28 30.4302C30.8581 31.0781 32.6714 30.7053 33.8658 29.4873L43.8822 19.3891C45.4903 17.7141 45.4848 15.0672 43.8699 13.3991L33.868 3.31714C32.6752 2.09459 30.8593 1.71982 29.28 2.37014C27.6822 3.02694 26.642 4.58678 26.6499 6.3143V10.2503H24.6C11.0198 10.2647 0.0146543 21.2699 0 34.8501V86.1C0.0146543 99.6802 11.0198 110.685 24.6 110.7H49.2V114.8C49.2 119.329 52.8713 123 57.3999 123H114.8C119.329 123 123 119.329 123 114.8V94.3001C123 89.7712 119.329 86.1 114.8 86.1ZM24.6 106.6C13.2833 106.587 4.11233 97.4167 4.10008 86.1V34.8501C4.11233 23.5333 13.2833 14.3624 24.6 14.3499H28.7001C29.8323 14.3499 30.75 13.432 30.75 12.3V6.31406L30.9549 6.19923L40.9487 16.273C41.0013 16.3451 41.0013 16.4428 40.9487 16.5149L30.9446 26.6009L30.75 26.4861V20.4999C30.75 19.3677 29.8323 18.45 28.7001 18.45H24.6C15.5468 18.4601 8.21025 25.7968 8.19992 34.8501V86.1C8.21001 95.1532 15.5468 102.49 24.6 102.5H49.2V106.6H24.6V106.6ZM118.9 114.8C118.9 117.065 117.064 118.9 114.8 118.9H57.3999C55.1355 118.9 53.2998 117.065 53.2998 114.8V94.3001C53.2998 92.0357 55.1355 90.2001 57.3999 90.2001H114.8C117.064 90.2001 118.9 92.0357 118.9 94.3001V114.8Z" fill="#1FB0E2"/>
<path d="M114.8 43.05H57.3999C52.8713 43.05 49.2 46.7213 49.2 51.25V71.7499C49.2 76.2785 52.8713 79.9498 57.3999 79.9498H114.8C119.329 79.9498 123 76.2785 123 71.7499V51.25C123 46.7213 119.329 43.05 114.8 43.05ZM118.9 71.7501C118.9 74.0146 117.064 75.8502 114.8 75.8502H57.3999C55.1355 75.8502 53.2999 74.0146 53.2999 71.7501V51.2502C53.2999 48.9858 55.1355 47.1501 57.3999 47.1501H114.8C117.064 47.1501 118.9 48.9858 118.9 51.2502V71.7501Z" fill="#1FB0E2"/>
<path d="M114.8 0H57.3999C52.8713 0 49.2 3.67126 49.2 8.19992V28.6998C49.2 33.2285 52.8713 36.8998 57.3999 36.8998H114.8C119.329 36.8998 123 33.2285 123 28.6998V8.19992C123 3.67126 119.329 0 114.8 0ZM118.9 28.7001C118.9 30.9645 117.064 32.8002 114.8 32.8002H57.3999C55.1355 32.8002 53.2999 30.9645 53.2999 28.7001V8.19992C53.2999 5.93547 55.1355 4.09984 57.3999 4.09984H114.8C117.064 4.09984 118.9 5.93547 118.9 8.19992V28.7001Z" fill="#1FB0E2"/>
<path d="M69.6999 24.6H67.65V10.2501C67.6498 9.11789 66.7318 8.2002 65.5996 8.20044C65.0562 8.20044 64.5351 8.41641 64.1507 8.80055L60.0507 12.9006C59.2641 13.715 59.2867 15.0128 60.1011 15.7993C60.8956 16.5666 62.1549 16.5666 62.9493 15.7993L63.5499 15.1987V24.6H61.5C60.3678 24.6 59.4501 25.5177 59.4501 26.65C59.4501 27.7822 60.368 28.6999 61.5 28.6999H69.6999C70.8321 28.6999 71.7498 27.7819 71.7498 26.65C71.7501 25.518 70.8321 24.6 69.6999 24.6Z" fill="#1FB0E2"/>
<path d="M65.6001 94.2999C62.2036 94.2999 59.4501 97.0535 59.4501 100.45C59.4501 101.582 60.368 102.5 61.5 102.5C62.6322 102.5 63.5499 101.582 63.5499 100.45C63.5499 99.3177 64.4676 98.4 65.5998 98.4C66.7321 98.4 67.6498 99.3177 67.6498 100.45C67.6498 101.582 66.7321 102.5 65.5998 102.5C64.4676 102.5 63.5499 103.418 63.5499 104.55C63.5499 105.682 64.4676 106.6 65.5998 106.6C66.7321 106.6 67.6498 107.517 67.6498 108.65C67.6498 109.782 66.7321 110.7 65.5998 110.7C64.4676 110.7 63.5499 109.782 63.5499 108.65C63.5499 107.517 62.632 106.6 61.5 106.6C60.3678 106.6 59.4501 107.517 59.4501 108.65C59.4474 112.046 62.1988 114.802 65.5953 114.804C68.9917 114.807 71.7474 112.056 71.7501 108.659C71.7513 107.143 71.192 105.679 70.1797 104.55C72.4441 102.018 72.2274 98.1302 69.6958 95.8658C68.5694 94.8585 67.1114 94.3011 65.6001 94.2999Z" fill="#1FB0E2"/>
<path d="M69.9481 53.05C67.546 50.6486 63.652 50.6493 61.2507 53.0514C60.0975 54.2048 59.4499 55.7692 59.4501 57.4001C59.4501 58.5324 60.368 59.4501 61.5 59.4501C62.6322 59.4501 63.5499 58.5321 63.5499 57.4001C63.5499 56.2679 64.4676 55.3502 65.5999 55.3502C66.7321 55.3502 67.6498 56.2682 67.6498 57.4001C67.6498 60.5345 66.1964 62.1027 60.0504 68.2486C59.2488 69.0481 59.2471 70.3461 60.0468 71.1478C60.4319 71.5338 60.9547 71.7505 61.4998 71.7501H69.6997C70.8319 71.7501 71.7496 70.8321 71.7496 69.7001C71.7496 68.5679 70.8317 67.6502 69.6997 67.6502H66.4073C70.2366 63.6549 71.7496 61.3342 71.7496 57.4001C71.7547 55.7675 71.1058 54.2009 69.9481 53.05Z" fill="#1FB0E2"/>
</g>
</mask>
<g mask="url(#mask0_387_2853)">
<rect width="123" height="123" fill="url(#paint0_linear_387_2853)"/>
</g>
<defs>
<linearGradient id="paint0_linear_387_2853" x1="61.5" y1="0" x2="61.5" y2="123" gradientUnits="userSpaceOnUse">
<stop stop-color="#1D9ED3"/>
<stop offset="1" stop-color="#1673B1"/>
</linearGradient>
<clipPath id="clip0_387_2853">
<rect width="123" height="123" fill="white"/>
</clipPath>
</defs>
</svg>
