<svg width="162" height="161" viewBox="0 0 162 161" fill="none" xmlns="http://www.w3.org/2000/svg">
<g clip-path="url(#clip0_387_6189)">
<path d="M58.7944 15.5439C59.7143 15.5439 60.4599 14.7982 60.4599 13.8784C60.4599 12.9586 59.7143 12.2129 58.7944 12.2129C57.8746 12.2129 57.1289 12.9586 57.1289 13.8784C57.1289 14.7982 57.8746 15.5439 58.7944 15.5439Z" fill="white"/>
<path d="M81.0015 15.5439C81.9213 15.5439 82.667 14.7982 82.667 13.8784C82.667 12.9586 81.9213 12.2129 81.0015 12.2129C80.0816 12.2129 79.3359 12.9586 79.3359 13.8784C79.3359 14.7982 80.0816 15.5439 81.0015 15.5439Z" fill="white"/>
<path d="M103.208 15.5439C104.128 15.5439 104.874 14.7982 104.874 13.8784C104.874 12.9586 104.128 12.2129 103.208 12.2129C102.289 12.2129 101.543 12.9586 101.543 13.8784C101.543 14.7982 102.289 15.5439 103.208 15.5439Z" fill="white"/>
<path d="M58.7944 21.0959C59.7143 21.0959 60.4599 20.3502 60.4599 19.4304C60.4599 18.5106 59.7143 17.7649 58.7944 17.7649C57.8746 17.7649 57.1289 18.5106 57.1289 19.4304C57.1289 20.3502 57.8746 21.0959 58.7944 21.0959Z" fill="white"/>
<path d="M64.3452 21.0962C65.265 21.0962 66.0107 20.3505 66.0107 19.4307C66.0107 18.5108 65.265 17.7651 64.3452 17.7651C63.4254 17.7651 62.6797 18.5108 62.6797 19.4307C62.6797 20.3505 63.4254 21.0962 64.3452 21.0962Z" fill="white"/>
<path d="M86.5522 26.6484C87.4721 26.6484 88.2178 25.9027 88.2178 24.9829C88.2178 24.0631 87.4721 23.3174 86.5522 23.3174C85.6324 23.3174 84.8867 24.0631 84.8867 24.9829C84.8867 25.9027 85.6324 26.6484 86.5522 26.6484Z" fill="white"/>
<path d="M92.103 26.6484C93.0229 26.6484 93.7685 25.9027 93.7685 24.9829C93.7685 24.0631 93.0229 23.3174 92.103 23.3174C91.1832 23.3174 90.4375 24.0631 90.4375 24.9829C90.4375 25.9027 91.1832 26.6484 92.103 26.6484Z" fill="white"/>
<path d="M58.7944 32.1992C59.7143 32.1992 60.4599 31.4535 60.4599 30.5337C60.4599 29.6138 59.7143 28.8682 58.7944 28.8682C57.8746 28.8682 57.1289 29.6138 57.1289 30.5337C57.1289 31.4535 57.8746 32.1992 58.7944 32.1992Z" fill="white"/>
<path d="M69.896 32.1992C70.8158 32.1992 71.5615 31.4535 71.5615 30.5337C71.5615 29.6138 70.8158 28.8682 69.896 28.8682C68.9761 28.8682 68.2305 29.6138 68.2305 30.5337C68.2305 31.4535 68.9761 32.1992 69.896 32.1992Z" fill="white"/>
<path d="M75.4507 32.1992C76.3705 32.1992 77.1162 31.4535 77.1162 30.5337C77.1162 29.6138 76.3705 28.8682 75.4507 28.8682C74.5308 28.8682 73.7852 29.6138 73.7852 30.5337C73.7852 31.4535 74.5308 32.1992 75.4507 32.1992Z" fill="white"/>
<path d="M86.5522 32.1992C87.4721 32.1992 88.2178 31.4535 88.2178 30.5337C88.2178 29.6138 87.4721 28.8682 86.5522 28.8682C85.6324 28.8682 84.8867 29.6138 84.8867 30.5337C84.8867 31.4535 85.6324 32.1992 86.5522 32.1992Z" fill="white"/>
<path d="M86.5522 37.751C87.4721 37.751 88.2178 37.0053 88.2178 36.0854C88.2178 35.1656 87.4721 34.4199 86.5522 34.4199C85.6324 34.4199 84.8867 35.1656 84.8867 36.0854C84.8867 37.0053 85.6324 37.751 86.5522 37.751Z" fill="white"/>
<path d="M92.103 37.751C93.0229 37.751 93.7685 37.0053 93.7685 36.0854C93.7685 35.1656 93.0229 34.4199 92.103 34.4199C91.1832 34.4199 90.4375 35.1656 90.4375 36.0854C90.4375 37.0053 91.1832 37.751 92.103 37.751Z" fill="white"/>
<path d="M97.654 37.7511C98.5739 37.7511 99.3196 37.0054 99.3196 36.0856C99.3196 35.1658 98.5739 34.4201 97.654 34.4201C96.7342 34.4201 95.9885 35.1658 95.9885 36.0856C95.9885 37.0054 96.7342 37.7511 97.654 37.7511Z" fill="white"/>
<path d="M103.208 37.751C104.128 37.751 104.874 37.0053 104.874 36.0854C104.874 35.1656 104.128 34.4199 103.208 34.4199C102.289 34.4199 101.543 35.1656 101.543 36.0854C101.543 37.0053 102.289 37.751 103.208 37.751Z" fill="white"/>
<path d="M75.4507 43.3032C76.3705 43.3032 77.1162 42.5575 77.1162 41.6377C77.1162 40.7178 76.3705 39.9722 75.4507 39.9722C74.5308 39.9722 73.7852 40.7178 73.7852 41.6377C73.7852 42.5575 74.5308 43.3032 75.4507 43.3032Z" fill="white"/>
<path d="M92.103 43.3032C93.0229 43.3032 93.7685 42.5575 93.7685 41.6377C93.7685 40.7178 93.0229 39.9722 92.103 39.9722C91.1832 39.9722 90.4375 40.7178 90.4375 41.6377C90.4375 42.5575 91.1832 43.3032 92.103 43.3032Z" fill="white"/>
<path d="M58.7944 48.8542C59.7143 48.8542 60.4599 48.1086 60.4599 47.1887C60.4599 46.2689 59.7143 45.5232 58.7944 45.5232C57.8746 45.5232 57.1289 46.2689 57.1289 47.1887C57.1289 48.1086 57.8746 48.8542 58.7944 48.8542Z" fill="white"/>
<path d="M69.896 48.8542C70.8158 48.8542 71.5615 48.1086 71.5615 47.1887C71.5615 46.2689 70.8158 45.5232 69.896 45.5232C68.9761 45.5232 68.2305 46.2689 68.2305 47.1887C68.2305 48.1086 68.9761 48.8542 69.896 48.8542Z" fill="white"/>
<path d="M81.0015 48.8542C81.9213 48.8542 82.667 48.1086 82.667 47.1887C82.667 46.2689 81.9213 45.5232 81.0015 45.5232C80.0816 45.5232 79.3359 46.2689 79.3359 47.1887C79.3359 48.1086 80.0816 48.8542 81.0015 48.8542Z" fill="white"/>
<path d="M92.103 48.8542C93.0229 48.8542 93.7685 48.1086 93.7685 47.1887C93.7685 46.2689 93.0229 45.5232 92.103 45.5232C91.1832 45.5232 90.4375 46.2689 90.4375 47.1887C90.4375 48.1086 91.1832 48.8542 92.103 48.8542Z" fill="white"/>
<path d="M103.208 48.8542C104.128 48.8542 104.874 48.1086 104.874 47.1887C104.874 46.2689 104.128 45.5232 103.208 45.5232C102.289 45.5232 101.543 46.2689 101.543 47.1887C101.543 48.1086 102.289 48.8542 103.208 48.8542Z" fill="white"/>
<path d="M58.7944 54.4065C59.7143 54.4065 60.4599 53.6608 60.4599 52.741C60.4599 51.8211 59.7143 51.0754 58.7944 51.0754C57.8746 51.0754 57.1289 51.8211 57.1289 52.741C57.1289 53.6608 57.8746 54.4065 58.7944 54.4065Z" fill="white"/>
<path d="M69.896 54.4065C70.8158 54.4065 71.5615 53.6608 71.5615 52.741C71.5615 51.8211 70.8158 51.0754 69.896 51.0754C68.9761 51.0754 68.2305 51.8211 68.2305 52.741C68.2305 53.6608 68.9761 54.4065 69.896 54.4065Z" fill="white"/>
<path d="M81.0015 54.4065C81.9213 54.4065 82.667 53.6608 82.667 52.741C82.667 51.8211 81.9213 51.0754 81.0015 51.0754C80.0816 51.0754 79.3359 51.8211 79.3359 52.741C79.3359 53.6608 80.0816 54.4065 81.0015 54.4065Z" fill="white"/>
<path d="M92.103 54.4065C93.0229 54.4065 93.7685 53.6608 93.7685 52.741C93.7685 51.8211 93.0229 51.0754 92.103 51.0754C91.1832 51.0754 90.4375 51.8211 90.4375 52.741C90.4375 53.6608 91.1832 54.4065 92.103 54.4065Z" fill="white"/>
<path d="M97.654 54.4064C98.5739 54.4064 99.3196 53.6607 99.3196 52.7408C99.3196 51.821 98.5739 51.0753 97.654 51.0753C96.7342 51.0753 95.9885 51.821 95.9885 52.7408C95.9885 53.6607 96.7342 54.4064 97.654 54.4064Z" fill="white"/>
<path d="M103.208 54.4062C104.128 54.4062 104.874 53.6606 104.874 52.7407C104.874 51.8209 104.128 51.0752 103.208 51.0752C102.289 51.0752 101.543 51.8209 101.543 52.7407C101.543 53.6606 102.289 54.4062 103.208 54.4062Z" fill="white"/>
<path d="M14.3843 59.9585C15.3041 59.9585 16.0498 59.2128 16.0498 58.293C16.0498 57.3731 15.3041 56.6274 14.3843 56.6274C13.4644 56.6274 12.7188 57.3731 12.7188 58.293C12.7188 59.2128 13.4644 59.9585 14.3843 59.9585Z" fill="white"/>
<path d="M25.4858 59.9585C26.4057 59.9585 27.1513 59.2128 27.1513 58.293C27.1513 57.3731 26.4057 56.6274 25.4858 56.6274C24.566 56.6274 23.8203 57.3731 23.8203 58.293C23.8203 59.2128 24.566 59.9585 25.4858 59.9585Z" fill="white"/>
<path d="M31.0327 59.9585C31.9525 59.9585 32.6982 59.2128 32.6982 58.293C32.6982 57.3731 31.9525 56.6274 31.0327 56.6274C30.1129 56.6274 29.3672 57.3731 29.3672 58.293C29.3672 59.2128 30.1129 59.9585 31.0327 59.9585Z" fill="white"/>
<path d="M42.1421 59.9585C43.0619 59.9585 43.8076 59.2128 43.8076 58.293C43.8076 57.3731 43.0619 56.6274 42.1421 56.6274C41.2222 56.6274 40.4766 57.3731 40.4766 58.293C40.4766 59.2128 41.2222 59.9585 42.1421 59.9585Z" fill="white"/>
<path d="M47.6929 59.9585C48.6127 59.9585 49.3584 59.2128 49.3584 58.293C49.3584 57.3731 48.6127 56.6274 47.6929 56.6274C46.773 56.6274 46.0273 57.3731 46.0273 58.293C46.0273 59.2128 46.773 59.9585 47.6929 59.9585Z" fill="white"/>
<path d="M53.2397 59.9585C54.1596 59.9585 54.9053 59.2128 54.9053 58.293C54.9053 57.3731 54.1596 56.6274 53.2397 56.6274C52.3199 56.6274 51.5742 57.3731 51.5742 58.293C51.5742 59.2128 52.3199 59.9585 53.2397 59.9585Z" fill="white"/>
<path d="M64.3452 59.9585C65.265 59.9585 66.0107 59.2128 66.0107 58.293C66.0107 57.3731 65.265 56.6274 64.3452 56.6274C63.4254 56.6274 62.6797 57.3731 62.6797 58.293C62.6797 59.2128 63.4254 59.9585 64.3452 59.9585Z" fill="white"/>
<path d="M75.4507 59.9585C76.3705 59.9585 77.1162 59.2128 77.1162 58.293C77.1162 57.3731 76.3705 56.6274 75.4507 56.6274C74.5308 56.6274 73.7852 57.3731 73.7852 58.293C73.7852 59.2128 74.5308 59.9585 75.4507 59.9585Z" fill="white"/>
<path d="M81.0015 59.9585C81.9213 59.9585 82.667 59.2128 82.667 58.293C82.667 57.3731 81.9213 56.6274 81.0015 56.6274C80.0816 56.6274 79.3359 57.3731 79.3359 58.293C79.3359 59.2128 80.0816 59.9585 81.0015 59.9585Z" fill="white"/>
<path d="M92.103 59.9585C93.0229 59.9585 93.7685 59.2128 93.7685 58.293C93.7685 57.3731 93.0229 56.6274 92.103 56.6274C91.1832 56.6274 90.4375 57.3731 90.4375 58.293C90.4375 59.2128 91.1832 59.9585 92.103 59.9585Z" fill="white"/>
<path d="M103.208 59.9585C104.128 59.9585 104.874 59.2128 104.874 58.293C104.874 57.3731 104.128 56.6274 103.208 56.6274C102.289 56.6274 101.543 57.3731 101.543 58.293C101.543 59.2128 102.289 59.9585 103.208 59.9585Z" fill="white"/>
<path d="M114.31 59.9585C115.23 59.9585 115.976 59.2128 115.976 58.293C115.976 57.3731 115.23 56.6274 114.31 56.6274C113.39 56.6274 112.645 57.3731 112.645 58.293C112.645 59.2128 113.39 59.9585 114.31 59.9585Z" fill="white"/>
<path d="M130.967 59.9585C131.886 59.9585 132.632 59.2128 132.632 58.293C132.632 57.3732 131.886 56.6275 130.967 56.6275C130.047 56.6275 129.301 57.3732 129.301 58.293C129.301 59.2128 130.047 59.9585 130.967 59.9585Z" fill="white"/>
<path d="M142.072 59.9585C142.992 59.9585 143.737 59.2128 143.737 58.293C143.737 57.3731 142.992 56.6274 142.072 56.6274C141.152 56.6274 140.406 57.3731 140.406 58.293C140.406 59.2128 141.152 59.9585 142.072 59.9585Z" fill="white"/>
<path d="M147.623 59.9585C148.542 59.9585 149.288 59.2128 149.288 58.293C149.288 57.3731 148.542 56.6274 147.623 56.6274C146.703 56.6274 145.957 57.3731 145.957 58.293C145.957 59.2128 146.703 59.9585 147.623 59.9585Z" fill="white"/>
<path d="M14.3843 65.509C15.3041 65.509 16.0498 64.7633 16.0498 63.8435C16.0498 62.9237 15.3041 62.178 14.3843 62.178C13.4644 62.178 12.7188 62.9237 12.7188 63.8435C12.7188 64.7633 13.4644 65.509 14.3843 65.509Z" fill="white"/>
<path d="M19.9272 65.509C20.8471 65.509 21.5928 64.7633 21.5928 63.8435C21.5928 62.9237 20.8471 62.178 19.9272 62.178C19.0074 62.178 18.2617 62.9237 18.2617 63.8435C18.2617 64.7633 19.0074 65.509 19.9272 65.509Z" fill="white"/>
<path d="M25.4858 65.509C26.4057 65.509 27.1513 64.7633 27.1513 63.8435C27.1513 62.9237 26.4057 62.178 25.4858 62.178C24.566 62.178 23.8203 62.9237 23.8203 63.8435C23.8203 64.7633 24.566 65.509 25.4858 65.509Z" fill="white"/>
<path d="M31.0327 65.509C31.9525 65.509 32.6982 64.7633 32.6982 63.8435C32.6982 62.9237 31.9525 62.178 31.0327 62.178C30.1129 62.178 29.3672 62.9237 29.3672 63.8435C29.3672 64.7633 30.1129 65.509 31.0327 65.509Z" fill="white"/>
<path d="M75.4507 65.5093C76.3705 65.5093 77.1162 64.7636 77.1162 63.8437C77.1162 62.9239 76.3705 62.1782 75.4507 62.1782C74.5308 62.1782 73.7852 62.9239 73.7852 63.8437C73.7852 64.7636 74.5308 65.5093 75.4507 65.5093Z" fill="white"/>
<path d="M103.208 65.509C104.128 65.509 104.874 64.7633 104.874 63.8435C104.874 62.9237 104.128 62.178 103.208 62.178C102.289 62.178 101.543 62.9237 101.543 63.8435C101.543 64.7633 102.289 65.509 103.208 65.509Z" fill="white"/>
<path d="M108.763 65.509C109.683 65.509 110.429 64.7633 110.429 63.8435C110.429 62.9237 109.683 62.178 108.763 62.178C107.843 62.178 107.098 62.9237 107.098 63.8435C107.098 64.7633 107.843 65.509 108.763 65.509Z" fill="white"/>
<path d="M119.865 65.509C120.785 65.509 121.53 64.7633 121.53 63.8435C121.53 62.9237 120.785 62.178 119.865 62.178C118.945 62.178 118.199 62.9237 118.199 63.8435C118.199 64.7633 118.945 65.509 119.865 65.509Z" fill="white"/>
<path d="M142.072 65.509C142.992 65.509 143.737 64.7633 143.737 63.8435C143.737 62.9237 142.992 62.178 142.072 62.178C141.152 62.178 140.406 62.9237 140.406 63.8435C140.406 64.7633 141.152 65.509 142.072 65.509Z" fill="white"/>
<path d="M31.0327 71.0615C31.9525 71.0615 32.6982 70.3158 32.6982 69.396C32.6982 68.4761 31.9525 67.7305 31.0327 67.7305C30.1129 67.7305 29.3672 68.4761 29.3672 69.396C29.3672 70.3158 30.1129 71.0615 31.0327 71.0615Z" fill="white"/>
<path d="M42.1421 71.0613C43.0619 71.0613 43.8076 70.3156 43.8076 69.3957C43.8076 68.4759 43.0619 67.7302 42.1421 67.7302C41.2222 67.7302 40.4766 68.4759 40.4766 69.3957C40.4766 70.3156 41.2222 71.0613 42.1421 71.0613Z" fill="white"/>
<path d="M47.6929 71.0615C48.6127 71.0615 49.3584 70.3158 49.3584 69.396C49.3584 68.4761 48.6127 67.7305 47.6929 67.7305C46.773 67.7305 46.0273 68.4761 46.0273 69.396C46.0273 70.3158 46.773 71.0615 47.6929 71.0615Z" fill="white"/>
<path d="M58.7944 71.0615C59.7143 71.0615 60.4599 70.3158 60.4599 69.396C60.4599 68.4761 59.7143 67.7305 58.7944 67.7305C57.8746 67.7305 57.1289 68.4761 57.1289 69.396C57.1289 70.3158 57.8746 71.0615 58.7944 71.0615Z" fill="white"/>
<path d="M64.3452 71.0613C65.265 71.0613 66.0107 70.3156 66.0107 69.3957C66.0107 68.4759 65.265 67.7302 64.3452 67.7302C63.4254 67.7302 62.6797 68.4759 62.6797 69.3957C62.6797 70.3156 63.4254 71.0613 64.3452 71.0613Z" fill="white"/>
<path d="M69.896 71.0615C70.8158 71.0615 71.5615 70.3158 71.5615 69.396C71.5615 68.4761 70.8158 67.7305 69.896 67.7305C68.9761 67.7305 68.2305 68.4761 68.2305 69.396C68.2305 70.3158 68.9761 71.0615 69.896 71.0615Z" fill="white"/>
<path d="M75.4507 71.0613C76.3705 71.0613 77.1162 70.3156 77.1162 69.3957C77.1162 68.4759 76.3705 67.7302 75.4507 67.7302C74.5308 67.7302 73.7852 68.4759 73.7852 69.3957C73.7852 70.3156 74.5308 71.0613 75.4507 71.0613Z" fill="white"/>
<path d="M81.0015 71.0615C81.9213 71.0615 82.667 70.3158 82.667 69.396C82.667 68.4761 81.9213 67.7305 81.0015 67.7305C80.0816 67.7305 79.3359 68.4761 79.3359 69.396C79.3359 70.3158 80.0816 71.0615 81.0015 71.0615Z" fill="white"/>
<path d="M86.5522 71.0615C87.4721 71.0615 88.2178 70.3158 88.2178 69.396C88.2178 68.4761 87.4721 67.7305 86.5522 67.7305C85.6324 67.7305 84.8867 68.4761 84.8867 69.396C84.8867 70.3158 85.6324 71.0615 86.5522 71.0615Z" fill="white"/>
<path d="M92.103 71.0615C93.0229 71.0615 93.7685 70.3158 93.7685 69.396C93.7685 68.4761 93.0229 67.7305 92.103 67.7305C91.1832 67.7305 90.4375 68.4761 90.4375 69.396C90.4375 70.3158 91.1832 71.0615 92.103 71.0615Z" fill="white"/>
<path d="M103.208 71.0615C104.128 71.0615 104.874 70.3158 104.874 69.396C104.874 68.4761 104.128 67.7305 103.208 67.7305C102.289 67.7305 101.543 68.4761 101.543 69.396C101.543 70.3158 102.289 71.0615 103.208 71.0615Z" fill="white"/>
<path d="M119.865 71.0615C120.785 71.0615 121.53 70.3158 121.53 69.396C121.53 68.4761 120.785 67.7305 119.865 67.7305C118.945 67.7305 118.199 68.4761 118.199 69.396C118.199 70.3158 118.945 71.0615 119.865 71.0615Z" fill="white"/>
<path d="M14.3843 76.6135C15.3041 76.6135 16.0498 75.8678 16.0498 74.948C16.0498 74.0281 15.3041 73.2825 14.3843 73.2825C13.4644 73.2825 12.7188 74.0281 12.7188 74.948C12.7188 75.8678 13.4644 76.6135 14.3843 76.6135Z" fill="white"/>
<path d="M69.896 76.6135C70.8158 76.6135 71.5615 75.8678 71.5615 74.948C71.5615 74.0281 70.8158 73.2825 69.896 73.2825C68.9761 73.2825 68.2305 74.0281 68.2305 74.948C68.2305 75.8678 68.9761 76.6135 69.896 76.6135Z" fill="white"/>
<path d="M81.0015 76.6135C81.9213 76.6135 82.667 75.8678 82.667 74.948C82.667 74.0281 81.9213 73.2825 81.0015 73.2825C80.0816 73.2825 79.3359 74.0281 79.3359 74.948C79.3359 75.8678 80.0816 76.6135 81.0015 76.6135Z" fill="white"/>
<path d="M86.5522 76.6135C87.4721 76.6135 88.2178 75.8678 88.2178 74.948C88.2178 74.0281 87.4721 73.2825 86.5522 73.2825C85.6324 73.2825 84.8867 74.0281 84.8867 74.948C84.8867 75.8678 85.6324 76.6135 86.5522 76.6135Z" fill="white"/>
<path d="M92.103 76.6135C93.0229 76.6135 93.7685 75.8678 93.7685 74.948C93.7685 74.0281 93.0229 73.2825 92.103 73.2825C91.1832 73.2825 90.4375 74.0281 90.4375 74.948C90.4375 75.8678 91.1832 76.6135 92.103 76.6135Z" fill="white"/>
<path d="M97.654 76.6135C98.5739 76.6135 99.3196 75.8679 99.3196 74.948C99.3196 74.0282 98.5739 73.2825 97.654 73.2825C96.7342 73.2825 95.9885 74.0282 95.9885 74.948C95.9885 75.8679 96.7342 76.6135 97.654 76.6135Z" fill="white"/>
<path d="M108.763 76.6135C109.683 76.6135 110.429 75.8678 110.429 74.948C110.429 74.0281 109.683 73.2825 108.763 73.2825C107.843 73.2825 107.098 74.0281 107.098 74.948C107.098 75.8678 107.843 76.6135 108.763 76.6135Z" fill="white"/>
<path d="M114.31 76.6135C115.23 76.6135 115.976 75.8678 115.976 74.948C115.976 74.0281 115.23 73.2825 114.31 73.2825C113.39 73.2825 112.645 74.0281 112.645 74.948C112.645 75.8678 113.39 76.6135 114.31 76.6135Z" fill="white"/>
<path d="M130.967 76.6135C131.886 76.6135 132.632 75.8678 132.632 74.948C132.632 74.0281 131.886 73.2824 130.967 73.2824C130.047 73.2824 129.301 74.0281 129.301 74.948C129.301 75.8678 130.047 76.6135 130.967 76.6135Z" fill="white"/>
<path d="M136.517 76.6135C137.437 76.6135 138.183 75.8678 138.183 74.948C138.183 74.0281 137.437 73.2825 136.517 73.2825C135.597 73.2825 134.852 74.0281 134.852 74.948C134.852 75.8678 135.597 76.6135 136.517 76.6135Z" fill="white"/>
<path d="M19.9272 82.1643C20.8471 82.1643 21.5928 81.4186 21.5928 80.4988C21.5928 79.5789 20.8471 78.8333 19.9272 78.8333C19.0074 78.8333 18.2617 79.5789 18.2617 80.4988C18.2617 81.4186 19.0074 82.1643 19.9272 82.1643Z" fill="white"/>
<path d="M25.4858 82.1643C26.4057 82.1643 27.1513 81.4186 27.1513 80.4988C27.1513 79.5789 26.4057 78.8333 25.4858 78.8333C24.566 78.8333 23.8203 79.5789 23.8203 80.4988C23.8203 81.4186 24.566 82.1643 25.4858 82.1643Z" fill="white"/>
<path d="M31.0327 82.1643C31.9525 82.1643 32.6982 81.4186 32.6982 80.4988C32.6982 79.5789 31.9525 78.8333 31.0327 78.8333C30.1129 78.8333 29.3672 79.5789 29.3672 80.4988C29.3672 81.4186 30.1129 82.1643 31.0327 82.1643Z" fill="white"/>
<path d="M47.6929 82.1643C48.6127 82.1643 49.3584 81.4186 49.3584 80.4988C49.3584 79.5789 48.6127 78.8333 47.6929 78.8333C46.773 78.8333 46.0273 79.5789 46.0273 80.4988C46.0273 81.4186 46.773 82.1643 47.6929 82.1643Z" fill="white"/>
<path d="M64.3452 82.1643C65.265 82.1643 66.0107 81.4186 66.0107 80.4988C66.0107 79.5789 65.265 78.8333 64.3452 78.8333C63.4254 78.8333 62.6797 79.5789 62.6797 80.4988C62.6797 81.4186 63.4254 82.1643 64.3452 82.1643Z" fill="white"/>
<path d="M69.896 82.1643C70.8158 82.1643 71.5615 81.4186 71.5615 80.4988C71.5615 79.5789 70.8158 78.8333 69.896 78.8333C68.9761 78.8333 68.2305 79.5789 68.2305 80.4988C68.2305 81.4186 68.9761 82.1643 69.896 82.1643Z" fill="white"/>
<path d="M86.5522 82.1643C87.4721 82.1643 88.2178 81.4186 88.2178 80.4988C88.2178 79.5789 87.4721 78.8333 86.5522 78.8333C85.6324 78.8333 84.8867 79.5789 84.8867 80.4988C84.8867 81.4186 85.6324 82.1643 86.5522 82.1643Z" fill="white"/>
<path d="M92.103 82.1643C93.0229 82.1643 93.7685 81.4186 93.7685 80.4988C93.7685 79.5789 93.0229 78.8333 92.103 78.8333C91.1832 78.8333 90.4375 79.5789 90.4375 80.4988C90.4375 81.4186 91.1832 82.1643 92.103 82.1643Z" fill="white"/>
<path d="M108.763 82.1643C109.683 82.1643 110.429 81.4186 110.429 80.4988C110.429 79.5789 109.683 78.8333 108.763 78.8333C107.843 78.8333 107.098 79.5789 107.098 80.4988C107.098 81.4186 107.843 82.1643 108.763 82.1643Z" fill="white"/>
<path d="M114.31 82.1643C115.23 82.1643 115.976 81.4186 115.976 80.4988C115.976 79.5789 115.23 78.8333 114.31 78.8333C113.39 78.8333 112.645 79.5789 112.645 80.4988C112.645 81.4186 113.39 82.1643 114.31 82.1643Z" fill="white"/>
<path d="M119.865 82.1643C120.785 82.1643 121.53 81.4186 121.53 80.4988C121.53 79.5789 120.785 78.8333 119.865 78.8333C118.945 78.8333 118.199 79.5789 118.199 80.4988C118.199 81.4186 118.945 82.1643 119.865 82.1643Z" fill="white"/>
<path d="M125.412 82.1643C126.331 82.1643 127.077 81.4186 127.077 80.4988C127.077 79.5789 126.331 78.8333 125.412 78.8333C124.492 78.8333 123.746 79.5789 123.746 80.4988C123.746 81.4186 124.492 82.1643 125.412 82.1643Z" fill="white"/>
<path d="M136.517 82.1643C137.437 82.1643 138.183 81.4186 138.183 80.4988C138.183 79.5789 137.437 78.8333 136.517 78.8333C135.597 78.8333 134.852 79.5789 134.852 80.4988C134.852 81.4186 135.597 82.1643 136.517 82.1643Z" fill="white"/>
<path d="M142.072 82.1643C142.992 82.1643 143.737 81.4186 143.737 80.4988C143.737 79.5789 142.992 78.8333 142.072 78.8333C141.152 78.8333 140.406 79.5789 140.406 80.4988C140.406 81.4186 141.152 82.1643 142.072 82.1643Z" fill="white"/>
<path d="M147.623 82.1643C148.542 82.1643 149.288 81.4186 149.288 80.4988C149.288 79.5789 148.542 78.8333 147.623 78.8333C146.703 78.8333 145.957 79.5789 145.957 80.4988C145.957 81.4186 146.703 82.1643 147.623 82.1643Z" fill="white"/>
<path d="M42.1421 87.7165C43.0619 87.7165 43.8076 86.9709 43.8076 86.051C43.8076 85.1312 43.0619 84.3855 42.1421 84.3855C41.2222 84.3855 40.4766 85.1312 40.4766 86.051C40.4766 86.9709 41.2222 87.7165 42.1421 87.7165Z" fill="white"/>
<path d="M53.2397 87.7165C54.1596 87.7165 54.9053 86.9709 54.9053 86.051C54.9053 85.1312 54.1596 84.3855 53.2397 84.3855C52.3199 84.3855 51.5742 85.1312 51.5742 86.051C51.5742 86.9709 52.3199 87.7165 53.2397 87.7165Z" fill="white"/>
<path d="M58.7944 87.7165C59.7143 87.7165 60.4599 86.9709 60.4599 86.051C60.4599 85.1312 59.7143 84.3855 58.7944 84.3855C57.8746 84.3855 57.1289 85.1312 57.1289 86.051C57.1289 86.9709 57.8746 87.7165 58.7944 87.7165Z" fill="white"/>
<path d="M64.3452 87.7165C65.265 87.7165 66.0107 86.9709 66.0107 86.051C66.0107 85.1312 65.265 84.3855 64.3452 84.3855C63.4254 84.3855 62.6797 85.1312 62.6797 86.051C62.6797 86.9709 63.4254 87.7165 64.3452 87.7165Z" fill="white"/>
<path d="M75.4507 87.7165C76.3705 87.7165 77.1162 86.9709 77.1162 86.051C77.1162 85.1312 76.3705 84.3855 75.4507 84.3855C74.5308 84.3855 73.7852 85.1312 73.7852 86.051C73.7852 86.9709 74.5308 87.7165 75.4507 87.7165Z" fill="white"/>
<path d="M86.5522 87.7165C87.4721 87.7165 88.2178 86.9709 88.2178 86.051C88.2178 85.1312 87.4721 84.3855 86.5522 84.3855C85.6324 84.3855 84.8867 85.1312 84.8867 86.051C84.8867 86.9709 85.6324 87.7165 86.5522 87.7165Z" fill="white"/>
<path d="M92.103 87.7165C93.0229 87.7165 93.7685 86.9709 93.7685 86.051C93.7685 85.1312 93.0229 84.3855 92.103 84.3855C91.1832 84.3855 90.4375 85.1312 90.4375 86.051C90.4375 86.9709 91.1832 87.7165 92.103 87.7165Z" fill="white"/>
<path d="M97.654 87.7166C98.5739 87.7166 99.3196 86.9709 99.3196 86.0511C99.3196 85.1313 98.5739 84.3856 97.654 84.3856C96.7342 84.3856 95.9885 85.1313 95.9885 86.0511C95.9885 86.9709 96.7342 87.7166 97.654 87.7166Z" fill="white"/>
<path d="M103.208 87.7165C104.128 87.7165 104.874 86.9709 104.874 86.051C104.874 85.1312 104.128 84.3855 103.208 84.3855C102.289 84.3855 101.543 85.1312 101.543 86.051C101.543 86.9709 102.289 87.7165 103.208 87.7165Z" fill="white"/>
<path d="M114.31 87.7165C115.23 87.7165 115.976 86.9709 115.976 86.051C115.976 85.1312 115.23 84.3855 114.31 84.3855C113.39 84.3855 112.645 85.1312 112.645 86.051C112.645 86.9709 113.39 87.7165 114.31 87.7165Z" fill="white"/>
<path d="M119.865 87.7165C120.785 87.7165 121.53 86.9709 121.53 86.051C121.53 85.1312 120.785 84.3855 119.865 84.3855C118.945 84.3855 118.199 85.1312 118.199 86.051C118.199 86.9709 118.945 87.7165 119.865 87.7165Z" fill="white"/>
<path d="M125.412 87.7165C126.331 87.7165 127.077 86.9709 127.077 86.051C127.077 85.1312 126.331 84.3855 125.412 84.3855C124.492 84.3855 123.746 85.1312 123.746 86.051C123.746 86.9709 124.492 87.7165 125.412 87.7165Z" fill="white"/>
<path d="M147.623 87.7165C148.542 87.7165 149.288 86.9709 149.288 86.051C149.288 85.1312 148.542 84.3855 147.623 84.3855C146.703 84.3855 145.957 85.1312 145.957 86.051C145.957 86.9709 146.703 87.7165 147.623 87.7165Z" fill="white"/>
<path d="M19.9272 93.2685C20.8471 93.2685 21.5928 92.5229 21.5928 91.603C21.5928 90.6832 20.8471 89.9375 19.9272 89.9375C19.0074 89.9375 18.2617 90.6832 18.2617 91.603C18.2617 92.5229 19.0074 93.2685 19.9272 93.2685Z" fill="white"/>
<path d="M25.4858 93.2685C26.4057 93.2685 27.1513 92.5229 27.1513 91.603C27.1513 90.6832 26.4057 89.9375 25.4858 89.9375C24.566 89.9375 23.8203 90.6832 23.8203 91.603C23.8203 92.5229 24.566 93.2685 25.4858 93.2685Z" fill="white"/>
<path d="M36.5874 93.2684C37.5072 93.2684 38.2529 92.5228 38.2529 91.6029C38.2529 90.6831 37.5072 89.9374 36.5874 89.9374C35.6676 89.9374 34.9219 90.6831 34.9219 91.6029C34.9219 92.5228 35.6676 93.2684 36.5874 93.2684Z" fill="white"/>
<path d="M42.1421 93.2685C43.0619 93.2685 43.8076 92.5229 43.8076 91.603C43.8076 90.6832 43.0619 89.9375 42.1421 89.9375C41.2222 89.9375 40.4766 90.6832 40.4766 91.603C40.4766 92.5229 41.2222 93.2685 42.1421 93.2685Z" fill="white"/>
<path d="M47.6929 93.2685C48.6127 93.2685 49.3584 92.5229 49.3584 91.603C49.3584 90.6832 48.6127 89.9375 47.6929 89.9375C46.773 89.9375 46.0273 90.6832 46.0273 91.603C46.0273 92.5229 46.773 93.2685 47.6929 93.2685Z" fill="white"/>
<path d="M53.2397 93.2685C54.1596 93.2685 54.9053 92.5229 54.9053 91.603C54.9053 90.6832 54.1596 89.9375 53.2397 89.9375C52.3199 89.9375 51.5742 90.6832 51.5742 91.603C51.5742 92.5229 52.3199 93.2685 53.2397 93.2685Z" fill="white"/>
<path d="M69.896 93.2685C70.8158 93.2685 71.5615 92.5229 71.5615 91.603C71.5615 90.6832 70.8158 89.9375 69.896 89.9375C68.9761 89.9375 68.2305 90.6832 68.2305 91.603C68.2305 92.5229 68.9761 93.2685 69.896 93.2685Z" fill="white"/>
<path d="M81.0015 93.2685C81.9213 93.2685 82.667 92.5229 82.667 91.603C82.667 90.6832 81.9213 89.9375 81.0015 89.9375C80.0816 89.9375 79.3359 90.6832 79.3359 91.603C79.3359 92.5229 80.0816 93.2685 81.0015 93.2685Z" fill="white"/>
<path d="M92.103 93.2685C93.0229 93.2685 93.7685 92.5229 93.7685 91.603C93.7685 90.6832 93.0229 89.9375 92.103 89.9375C91.1832 89.9375 90.4375 90.6832 90.4375 91.603C90.4375 92.5229 91.1832 93.2685 92.103 93.2685Z" fill="white"/>
<path d="M108.763 93.2685C109.683 93.2685 110.429 92.5229 110.429 91.603C110.429 90.6832 109.683 89.9375 108.763 89.9375C107.843 89.9375 107.098 90.6832 107.098 91.603C107.098 92.5229 107.843 93.2685 108.763 93.2685Z" fill="white"/>
<path d="M125.412 93.2685C126.331 93.2685 127.077 92.5229 127.077 91.603C127.077 90.6832 126.331 89.9375 125.412 89.9375C124.492 89.9375 123.746 90.6832 123.746 91.603C123.746 92.5229 124.492 93.2685 125.412 93.2685Z" fill="white"/>
<path d="M136.517 93.2685C137.437 93.2685 138.183 92.5229 138.183 91.603C138.183 90.6832 137.437 89.9375 136.517 89.9375C135.597 89.9375 134.852 90.6832 134.852 91.603C134.852 92.5229 135.597 93.2685 136.517 93.2685Z" fill="white"/>
<path d="M142.072 93.2685C142.992 93.2685 143.737 92.5229 143.737 91.603C143.737 90.6832 142.992 89.9375 142.072 89.9375C141.152 89.9375 140.406 90.6832 140.406 91.603C140.406 92.5229 141.152 93.2685 142.072 93.2685Z" fill="white"/>
<path d="M14.3843 98.8196C15.3041 98.8196 16.0498 98.0739 16.0498 97.154C16.0498 96.2342 15.3041 95.4885 14.3843 95.4885C13.4644 95.4885 12.7188 96.2342 12.7188 97.154C12.7188 98.0739 13.4644 98.8196 14.3843 98.8196Z" fill="white"/>
<path d="M31.0327 98.8196C31.9525 98.8196 32.6982 98.0739 32.6982 97.154C32.6982 96.2342 31.9525 95.4885 31.0327 95.4885C30.1129 95.4885 29.3672 96.2342 29.3672 97.154C29.3672 98.0739 30.1129 98.8196 31.0327 98.8196Z" fill="white"/>
<path d="M42.1421 98.8196C43.0619 98.8196 43.8076 98.0739 43.8076 97.154C43.8076 96.2342 43.0619 95.4885 42.1421 95.4885C41.2222 95.4885 40.4766 96.2342 40.4766 97.154C40.4766 98.0739 41.2222 98.8196 42.1421 98.8196Z" fill="white"/>
<path d="M53.2397 98.8196C54.1596 98.8196 54.9053 98.0739 54.9053 97.154C54.9053 96.2342 54.1596 95.4885 53.2397 95.4885C52.3199 95.4885 51.5742 96.2342 51.5742 97.154C51.5742 98.0739 52.3199 98.8196 53.2397 98.8196Z" fill="white"/>
<path d="M64.3452 98.8193C65.265 98.8193 66.0107 98.0736 66.0107 97.1538C66.0107 96.234 65.265 95.4883 64.3452 95.4883C63.4254 95.4883 62.6797 96.234 62.6797 97.1538C62.6797 98.0736 63.4254 98.8193 64.3452 98.8193Z" fill="white"/>
<path d="M81.0015 98.8196C81.9213 98.8196 82.667 98.0739 82.667 97.154C82.667 96.2342 81.9213 95.4885 81.0015 95.4885C80.0816 95.4885 79.3359 96.2342 79.3359 97.154C79.3359 98.0739 80.0816 98.8196 81.0015 98.8196Z" fill="white"/>
<path d="M92.103 98.8196C93.0229 98.8196 93.7685 98.0739 93.7685 97.154C93.7685 96.2342 93.0229 95.4885 92.103 95.4885C91.1832 95.4885 90.4375 96.2342 90.4375 97.154C90.4375 98.0739 91.1832 98.8196 92.103 98.8196Z" fill="white"/>
<path d="M103.208 98.8193C104.128 98.8193 104.874 98.0736 104.874 97.1538C104.874 96.234 104.128 95.4883 103.208 95.4883C102.289 95.4883 101.543 96.234 101.543 97.1538C101.543 98.0736 102.289 98.8193 103.208 98.8193Z" fill="white"/>
<path d="M108.763 98.8196C109.683 98.8196 110.429 98.0739 110.429 97.154C110.429 96.2342 109.683 95.4885 108.763 95.4885C107.843 95.4885 107.098 96.2342 107.098 97.154C107.098 98.0739 107.843 98.8196 108.763 98.8196Z" fill="white"/>
<path d="M119.865 98.8196C120.785 98.8196 121.53 98.0739 121.53 97.154C121.53 96.2342 120.785 95.4885 119.865 95.4885C118.945 95.4885 118.199 96.2342 118.199 97.154C118.199 98.0739 118.945 98.8196 119.865 98.8196Z" fill="white"/>
<path d="M125.412 98.8196C126.331 98.8196 127.077 98.0739 127.077 97.154C127.077 96.2342 126.331 95.4885 125.412 95.4885C124.492 95.4885 123.746 96.2342 123.746 97.154C123.746 98.0739 124.492 98.8196 125.412 98.8196Z" fill="white"/>
<path d="M147.623 98.8196C148.542 98.8196 149.288 98.0739 149.288 97.154C149.288 96.2342 148.542 95.4885 147.623 95.4885C146.703 95.4885 145.957 96.2342 145.957 97.154C145.957 98.0739 146.703 98.8196 147.623 98.8196Z" fill="white"/>
<path d="M25.4858 104.371C26.4057 104.371 27.1513 103.626 27.1513 102.706C27.1513 101.786 26.4057 101.04 25.4858 101.04C24.566 101.04 23.8203 101.786 23.8203 102.706C23.8203 103.626 24.566 104.371 25.4858 104.371Z" fill="white"/>
<path d="M31.0327 104.371C31.9525 104.371 32.6982 103.626 32.6982 102.706C32.6982 101.786 31.9525 101.04 31.0327 101.04C30.1129 101.04 29.3672 101.786 29.3672 102.706C29.3672 103.626 30.1129 104.371 31.0327 104.371Z" fill="white"/>
<path d="M47.6929 104.371C48.6127 104.371 49.3584 103.626 49.3584 102.706C49.3584 101.786 48.6127 101.04 47.6929 101.04C46.773 101.04 46.0273 101.786 46.0273 102.706C46.0273 103.626 46.773 104.371 47.6929 104.371Z" fill="white"/>
<path d="M53.2397 104.371C54.1596 104.371 54.9053 103.626 54.9053 102.706C54.9053 101.786 54.1596 101.04 53.2397 101.04C52.3199 101.04 51.5742 101.786 51.5742 102.706C51.5742 103.626 52.3199 104.371 53.2397 104.371Z" fill="white"/>
<path d="M58.7944 104.371C59.7143 104.371 60.4599 103.626 60.4599 102.706C60.4599 101.786 59.7143 101.04 58.7944 101.04C57.8746 101.04 57.1289 101.786 57.1289 102.706C57.1289 103.626 57.8746 104.371 58.7944 104.371Z" fill="white"/>
<path d="M69.896 104.371C70.8158 104.371 71.5615 103.626 71.5615 102.706C71.5615 101.786 70.8158 101.04 69.896 101.04C68.9761 101.04 68.2305 101.786 68.2305 102.706C68.2305 103.626 68.9761 104.371 69.896 104.371Z" fill="white"/>
<path d="M75.4507 104.371C76.3705 104.371 77.1162 103.626 77.1162 102.706C77.1162 101.786 76.3705 101.04 75.4507 101.04C74.5308 101.04 73.7852 101.786 73.7852 102.706C73.7852 103.626 74.5308 104.371 75.4507 104.371Z" fill="white"/>
<path d="M86.5522 104.371C87.4721 104.371 88.2178 103.626 88.2178 102.706C88.2178 101.786 87.4721 101.04 86.5522 101.04C85.6324 101.04 84.8867 101.786 84.8867 102.706C84.8867 103.626 85.6324 104.371 86.5522 104.371Z" fill="white"/>
<path d="M97.654 104.371C98.5739 104.371 99.3196 103.626 99.3196 102.706C99.3196 101.786 98.5739 101.04 97.654 101.04C96.7342 101.04 95.9885 101.786 95.9885 102.706C95.9885 103.626 96.7342 104.371 97.654 104.371Z" fill="white"/>
<path d="M103.208 104.372C104.128 104.372 104.874 103.626 104.874 102.706C104.874 101.786 104.128 101.041 103.208 101.041C102.289 101.041 101.543 101.786 101.543 102.706C101.543 103.626 102.289 104.372 103.208 104.372Z" fill="white"/>
<path d="M108.763 104.371C109.683 104.371 110.429 103.626 110.429 102.706C110.429 101.786 109.683 101.04 108.763 101.04C107.843 101.04 107.098 101.786 107.098 102.706C107.098 103.626 107.843 104.371 108.763 104.371Z" fill="white"/>
<path d="M114.31 104.371C115.23 104.371 115.976 103.626 115.976 102.706C115.976 101.786 115.23 101.04 114.31 101.04C113.39 101.04 112.645 101.786 112.645 102.706C112.645 103.626 113.39 104.371 114.31 104.371Z" fill="white"/>
<path d="M119.865 104.371C120.785 104.371 121.53 103.626 121.53 102.706C121.53 101.786 120.785 101.04 119.865 101.04C118.945 101.04 118.199 101.786 118.199 102.706C118.199 103.626 118.945 104.371 119.865 104.371Z" fill="white"/>
<path d="M125.412 104.371C126.331 104.371 127.077 103.626 127.077 102.706C127.077 101.786 126.331 101.04 125.412 101.04C124.492 101.04 123.746 101.786 123.746 102.706C123.746 103.626 124.492 104.371 125.412 104.371Z" fill="white"/>
<path d="M130.967 104.372C131.886 104.372 132.632 103.626 132.632 102.706C132.632 101.786 131.886 101.041 130.967 101.041C130.047 101.041 129.301 101.786 129.301 102.706C129.301 103.626 130.047 104.372 130.967 104.372Z" fill="white"/>
<path d="M136.517 104.371C137.437 104.371 138.183 103.626 138.183 102.706C138.183 101.786 137.437 101.04 136.517 101.04C135.597 101.04 134.852 101.786 134.852 102.706C134.852 103.626 135.597 104.371 136.517 104.371Z" fill="white"/>
<path d="M142.072 104.371C142.992 104.371 143.737 103.626 143.737 102.706C143.737 101.786 142.992 101.04 142.072 101.04C141.152 101.04 140.406 101.786 140.406 102.706C140.406 103.626 141.152 104.371 142.072 104.371Z" fill="white"/>
<path d="M147.623 104.371C148.542 104.371 149.288 103.626 149.288 102.706C149.288 101.786 148.542 101.04 147.623 101.04C146.703 101.04 145.957 101.786 145.957 102.706C145.957 103.626 146.703 104.371 147.623 104.371Z" fill="white"/>
<path d="M58.7944 109.924C59.7143 109.924 60.4599 109.178 60.4599 108.258C60.4599 107.338 59.7143 106.593 58.7944 106.593C57.8746 106.593 57.1289 107.338 57.1289 108.258C57.1289 109.178 57.8746 109.924 58.7944 109.924Z" fill="white"/>
<path d="M64.3452 109.924C65.265 109.924 66.0107 109.178 66.0107 108.258C66.0107 107.338 65.265 106.593 64.3452 106.593C63.4254 106.593 62.6797 107.338 62.6797 108.258C62.6797 109.178 63.4254 109.924 64.3452 109.924Z" fill="white"/>
<path d="M69.896 109.924C70.8158 109.924 71.5615 109.178 71.5615 108.258C71.5615 107.338 70.8158 106.593 69.896 106.593C68.9761 106.593 68.2305 107.338 68.2305 108.258C68.2305 109.178 68.9761 109.924 69.896 109.924Z" fill="white"/>
<path d="M81.0015 109.924C81.9213 109.924 82.667 109.178 82.667 108.258C82.667 107.338 81.9213 106.593 81.0015 106.593C80.0816 106.593 79.3359 107.338 79.3359 108.258C79.3359 109.178 80.0816 109.924 81.0015 109.924Z" fill="white"/>
<path d="M103.208 109.924C104.128 109.924 104.874 109.178 104.874 108.258C104.874 107.338 104.128 106.593 103.208 106.593C102.289 106.593 101.543 107.338 101.543 108.258C101.543 109.178 102.289 109.924 103.208 109.924Z" fill="white"/>
<path d="M125.412 109.924C126.331 109.924 127.077 109.178 127.077 108.258C127.077 107.338 126.331 106.593 125.412 106.593C124.492 106.593 123.746 107.338 123.746 108.258C123.746 109.178 124.492 109.924 125.412 109.924Z" fill="white"/>
<path d="M136.517 109.924C137.437 109.924 138.183 109.178 138.183 108.258C138.183 107.338 137.437 106.593 136.517 106.593C135.597 106.593 134.852 107.338 134.852 108.258C134.852 109.178 135.597 109.924 136.517 109.924Z" fill="white"/>
<path d="M147.623 109.924C148.542 109.924 149.288 109.178 149.288 108.258C149.288 107.338 148.542 106.593 147.623 106.593C146.703 106.593 145.957 107.338 145.957 108.258C145.957 109.178 146.703 109.924 147.623 109.924Z" fill="white"/>
<path d="M58.7944 115.476C59.7143 115.476 60.4599 114.73 60.4599 113.81C60.4599 112.89 59.7143 112.145 58.7944 112.145C57.8746 112.145 57.1289 112.89 57.1289 113.81C57.1289 114.73 57.8746 115.476 58.7944 115.476Z" fill="white"/>
<path d="M64.3452 115.476C65.265 115.476 66.0107 114.73 66.0107 113.81C66.0107 112.89 65.265 112.145 64.3452 112.145C63.4254 112.145 62.6797 112.89 62.6797 113.81C62.6797 114.73 63.4254 115.476 64.3452 115.476Z" fill="white"/>
<path d="M75.4507 115.476C76.3705 115.476 77.1162 114.73 77.1162 113.81C77.1162 112.89 76.3705 112.145 75.4507 112.145C74.5308 112.145 73.7852 112.89 73.7852 113.81C73.7852 114.73 74.5308 115.476 75.4507 115.476Z" fill="white"/>
<path d="M81.0015 115.476C81.9213 115.476 82.667 114.73 82.667 113.81C82.667 112.89 81.9213 112.145 81.0015 112.145C80.0816 112.145 79.3359 112.89 79.3359 113.81C79.3359 114.73 80.0816 115.476 81.0015 115.476Z" fill="white"/>
<path d="M92.103 115.476C93.0229 115.476 93.7685 114.73 93.7685 113.81C93.7685 112.89 93.0229 112.145 92.103 112.145C91.1832 112.145 90.4375 112.89 90.4375 113.81C90.4375 114.73 91.1832 115.476 92.103 115.476Z" fill="white"/>
<path d="M103.208 115.476C104.128 115.476 104.874 114.73 104.874 113.81C104.874 112.89 104.128 112.145 103.208 112.145C102.289 112.145 101.543 112.89 101.543 113.81C101.543 114.73 102.289 115.476 103.208 115.476Z" fill="white"/>
<path d="M114.31 115.476C115.23 115.476 115.976 114.73 115.976 113.81C115.976 112.89 115.23 112.145 114.31 112.145C113.39 112.145 112.645 112.89 112.645 113.81C112.645 114.73 113.39 115.476 114.31 115.476Z" fill="white"/>
<path d="M125.412 115.476C126.331 115.476 127.077 114.73 127.077 113.81C127.077 112.89 126.331 112.145 125.412 112.145C124.492 112.145 123.746 112.89 123.746 113.81C123.746 114.73 124.492 115.476 125.412 115.476Z" fill="white"/>
<path d="M136.517 115.476C137.437 115.476 138.183 114.73 138.183 113.81C138.183 112.89 137.437 112.145 136.517 112.145C135.597 112.145 134.852 112.89 134.852 113.81C134.852 114.73 135.597 115.476 136.517 115.476Z" fill="white"/>
<path d="M142.072 115.476C142.992 115.476 143.737 114.73 143.737 113.81C143.737 112.89 142.992 112.145 142.072 112.145C141.152 112.145 140.406 112.89 140.406 113.81C140.406 114.73 141.152 115.476 142.072 115.476Z" fill="white"/>
<path d="M147.623 115.476C148.542 115.476 149.288 114.73 149.288 113.81C149.288 112.89 148.542 112.145 147.623 112.145C146.703 112.145 145.957 112.89 145.957 113.81C145.957 114.73 146.703 115.476 147.623 115.476Z" fill="white"/>
<path d="M58.7944 121.027C59.7143 121.027 60.4599 120.281 60.4599 119.361C60.4599 118.441 59.7143 117.696 58.7944 117.696C57.8746 117.696 57.1289 118.441 57.1289 119.361C57.1289 120.281 57.8746 121.027 58.7944 121.027Z" fill="white"/>
<path d="M69.896 121.027C70.8158 121.027 71.5615 120.281 71.5615 119.361C71.5615 118.441 70.8158 117.696 69.896 117.696C68.9761 117.696 68.2305 118.441 68.2305 119.361C68.2305 120.281 68.9761 121.027 69.896 121.027Z" fill="white"/>
<path d="M81.0015 121.027C81.9213 121.027 82.667 120.281 82.667 119.361C82.667 118.441 81.9213 117.696 81.0015 117.696C80.0816 117.696 79.3359 118.441 79.3359 119.361C79.3359 120.281 80.0816 121.027 81.0015 121.027Z" fill="white"/>
<path d="M97.654 121.027C98.5739 121.027 99.3196 120.281 99.3196 119.361C99.3196 118.441 98.5739 117.696 97.654 117.696C96.7342 117.696 95.9885 118.441 95.9885 119.361C95.9885 120.281 96.7342 121.027 97.654 121.027Z" fill="white"/>
<path d="M103.208 121.027C104.128 121.027 104.874 120.281 104.874 119.361C104.874 118.441 104.128 117.696 103.208 117.696C102.289 117.696 101.543 118.441 101.543 119.361C101.543 120.281 102.289 121.027 103.208 121.027Z" fill="white"/>
<path d="M125.412 121.027C126.331 121.027 127.077 120.281 127.077 119.361C127.077 118.441 126.331 117.696 125.412 117.696C124.492 117.696 123.746 118.441 123.746 119.361C123.746 120.281 124.492 121.027 125.412 121.027Z" fill="white"/>
<path d="M142.072 121.027C142.992 121.027 143.737 120.281 143.737 119.361C143.737 118.441 142.992 117.696 142.072 117.696C141.152 117.696 140.406 118.441 140.406 119.361C140.406 120.281 141.152 121.027 142.072 121.027Z" fill="white"/>
<path d="M147.623 121.027C148.542 121.027 149.288 120.281 149.288 119.361C149.288 118.441 148.542 117.696 147.623 117.696C146.703 117.696 145.957 118.441 145.957 119.361C145.957 120.281 146.703 121.027 147.623 121.027Z" fill="white"/>
<path d="M64.3452 126.579C65.265 126.579 66.0107 125.833 66.0107 124.913C66.0107 123.993 65.265 123.248 64.3452 123.248C63.4254 123.248 62.6797 123.993 62.6797 124.913C62.6797 125.833 63.4254 126.579 64.3452 126.579Z" fill="white"/>
<path d="M69.896 126.579C70.8158 126.579 71.5615 125.833 71.5615 124.913C71.5615 123.993 70.8158 123.248 69.896 123.248C68.9761 123.248 68.2305 123.993 68.2305 124.913C68.2305 125.833 68.9761 126.579 69.896 126.579Z" fill="white"/>
<path d="M75.4507 126.579C76.3705 126.579 77.1162 125.833 77.1162 124.913C77.1162 123.993 76.3705 123.248 75.4507 123.248C74.5308 123.248 73.7852 123.993 73.7852 124.913C73.7852 125.833 74.5308 126.579 75.4507 126.579Z" fill="white"/>
<path d="M81.0015 126.579C81.9213 126.579 82.667 125.833 82.667 124.913C82.667 123.993 81.9213 123.248 81.0015 123.248C80.0816 123.248 79.3359 123.993 79.3359 124.913C79.3359 125.833 80.0816 126.579 81.0015 126.579Z" fill="white"/>
<path d="M86.5522 126.579C87.4721 126.579 88.2178 125.833 88.2178 124.913C88.2178 123.993 87.4721 123.248 86.5522 123.248C85.6324 123.248 84.8867 123.993 84.8867 124.913C84.8867 125.833 85.6324 126.579 86.5522 126.579Z" fill="white"/>
<path d="M103.208 126.579C104.128 126.579 104.874 125.833 104.874 124.913C104.874 123.993 104.128 123.248 103.208 123.248C102.289 123.248 101.543 123.993 101.543 124.913C101.543 125.833 102.289 126.579 103.208 126.579Z" fill="white"/>
<path d="M108.763 126.579C109.683 126.579 110.429 125.833 110.429 124.913C110.429 123.993 109.683 123.248 108.763 123.248C107.843 123.248 107.098 123.993 107.098 124.913C107.098 125.833 107.843 126.579 108.763 126.579Z" fill="white"/>
<path d="M114.31 126.579C115.23 126.579 115.976 125.833 115.976 124.913C115.976 123.993 115.23 123.248 114.31 123.248C113.39 123.248 112.645 123.993 112.645 124.913C112.645 125.833 113.39 126.579 114.31 126.579Z" fill="white"/>
<path d="M119.865 126.579C120.785 126.579 121.53 125.833 121.53 124.913C121.53 123.993 120.785 123.248 119.865 123.248C118.945 123.248 118.199 123.993 118.199 124.913C118.199 125.833 118.945 126.579 119.865 126.579Z" fill="white"/>
<path d="M125.412 126.579C126.331 126.579 127.077 125.833 127.077 124.913C127.077 123.993 126.331 123.248 125.412 123.248C124.492 123.248 123.746 123.993 123.746 124.913C123.746 125.833 124.492 126.579 125.412 126.579Z" fill="white"/>
<path d="M130.967 126.579C131.886 126.579 132.632 125.833 132.632 124.913C132.632 123.993 131.886 123.248 130.967 123.248C130.047 123.248 129.301 123.993 129.301 124.913C129.301 125.833 130.047 126.579 130.967 126.579Z" fill="white"/>
<path d="M142.072 126.579C142.992 126.579 143.737 125.833 143.737 124.913C143.737 123.993 142.992 123.248 142.072 123.248C141.152 123.248 140.406 123.993 140.406 124.913C140.406 125.833 141.152 126.579 142.072 126.579Z" fill="white"/>
<path d="M58.7944 132.131C59.7143 132.131 60.4599 131.385 60.4599 130.465C60.4599 129.545 59.7143 128.8 58.7944 128.8C57.8746 128.8 57.1289 129.545 57.1289 130.465C57.1289 131.385 57.8746 132.131 58.7944 132.131Z" fill="white"/>
<path d="M69.896 132.131C70.8158 132.131 71.5615 131.385 71.5615 130.465C71.5615 129.545 70.8158 128.8 69.896 128.8C68.9761 128.8 68.2305 129.545 68.2305 130.465C68.2305 131.385 68.9761 132.131 69.896 132.131Z" fill="white"/>
<path d="M81.0015 132.131C81.9213 132.131 82.667 131.385 82.667 130.465C82.667 129.545 81.9213 128.8 81.0015 128.8C80.0816 128.8 79.3359 129.545 79.3359 130.465C79.3359 131.385 80.0816 132.131 81.0015 132.131Z" fill="white"/>
<path d="M86.5522 132.131C87.4721 132.131 88.2178 131.385 88.2178 130.465C88.2178 129.545 87.4721 128.8 86.5522 128.8C85.6324 128.8 84.8867 129.545 84.8867 130.465C84.8867 131.385 85.6324 132.131 86.5522 132.131Z" fill="white"/>
<path d="M103.208 132.131C104.128 132.131 104.874 131.385 104.874 130.465C104.874 129.545 104.128 128.8 103.208 128.8C102.289 128.8 101.543 129.545 101.543 130.465C101.543 131.385 102.289 132.131 103.208 132.131Z" fill="white"/>
<path d="M114.31 132.131C115.23 132.131 115.976 131.385 115.976 130.465C115.976 129.545 115.23 128.8 114.31 128.8C113.39 128.8 112.645 129.545 112.645 130.465C112.645 131.385 113.39 132.131 114.31 132.131Z" fill="white"/>
<path d="M125.412 132.131C126.331 132.131 127.077 131.385 127.077 130.465C127.077 129.545 126.331 128.8 125.412 128.8C124.492 128.8 123.746 129.545 123.746 130.465C123.746 131.385 124.492 132.131 125.412 132.131Z" fill="white"/>
<path d="M130.967 132.131C131.886 132.131 132.632 131.385 132.632 130.465C132.632 129.546 131.886 128.8 130.967 128.8C130.047 128.8 129.301 129.546 129.301 130.465C129.301 131.385 130.047 132.131 130.967 132.131Z" fill="white"/>
<path d="M136.517 132.131C137.437 132.131 138.183 131.385 138.183 130.465C138.183 129.545 137.437 128.8 136.517 128.8C135.597 128.8 134.852 129.545 134.852 130.465C134.852 131.385 135.597 132.131 136.517 132.131Z" fill="white"/>
<path d="M142.072 132.131C142.992 132.131 143.737 131.385 143.737 130.465C143.737 129.545 142.992 128.8 142.072 128.8C141.152 128.8 140.406 129.545 140.406 130.465C140.406 131.385 141.152 132.131 142.072 132.131Z" fill="white"/>
<path d="M147.623 132.131C148.542 132.131 149.288 131.385 149.288 130.465C149.288 129.545 148.542 128.8 147.623 128.8C146.703 128.8 145.957 129.545 145.957 130.465C145.957 131.385 146.703 132.131 147.623 132.131Z" fill="white"/>
<path d="M58.7944 137.682C59.7143 137.682 60.4599 136.936 60.4599 136.016C60.4599 135.097 59.7143 134.351 58.7944 134.351C57.8746 134.351 57.1289 135.097 57.1289 136.016C57.1289 136.936 57.8746 137.682 58.7944 137.682Z" fill="white"/>
<path d="M64.3452 137.682C65.265 137.682 66.0107 136.936 66.0107 136.016C66.0107 135.096 65.265 134.351 64.3452 134.351C63.4254 134.351 62.6797 135.096 62.6797 136.016C62.6797 136.936 63.4254 137.682 64.3452 137.682Z" fill="white"/>
<path d="M75.4507 137.682C76.3705 137.682 77.1162 136.936 77.1162 136.016C77.1162 135.096 76.3705 134.351 75.4507 134.351C74.5308 134.351 73.7852 135.096 73.7852 136.016C73.7852 136.936 74.5308 137.682 75.4507 137.682Z" fill="white"/>
<path d="M81.0015 137.682C81.9213 137.682 82.667 136.936 82.667 136.016C82.667 135.097 81.9213 134.351 81.0015 134.351C80.0816 134.351 79.3359 135.097 79.3359 136.016C79.3359 136.936 80.0816 137.682 81.0015 137.682Z" fill="white"/>
<path d="M86.5522 137.682C87.4721 137.682 88.2178 136.936 88.2178 136.016C88.2178 135.097 87.4721 134.351 86.5522 134.351C85.6324 134.351 84.8867 135.097 84.8867 136.016C84.8867 136.936 85.6324 137.682 86.5522 137.682Z" fill="white"/>
<path d="M97.654 137.682C98.5739 137.682 99.3196 136.936 99.3196 136.016C99.3196 135.096 98.5739 134.351 97.654 134.351C96.7342 134.351 95.9885 135.096 95.9885 136.016C95.9885 136.936 96.7342 137.682 97.654 137.682Z" fill="white"/>
<path d="M108.763 137.682C109.683 137.682 110.429 136.936 110.429 136.016C110.429 135.097 109.683 134.351 108.763 134.351C107.843 134.351 107.098 135.097 107.098 136.016C107.098 136.936 107.843 137.682 108.763 137.682Z" fill="white"/>
<path d="M114.31 137.682C115.23 137.682 115.976 136.936 115.976 136.016C115.976 135.097 115.23 134.351 114.31 134.351C113.39 134.351 112.645 135.097 112.645 136.016C112.645 136.936 113.39 137.682 114.31 137.682Z" fill="white"/>
<path d="M125.412 137.682C126.331 137.682 127.077 136.936 127.077 136.016C127.077 135.097 126.331 134.351 125.412 134.351C124.492 134.351 123.746 135.097 123.746 136.016C123.746 136.936 124.492 137.682 125.412 137.682Z" fill="white"/>
<path d="M136.517 137.682C137.437 137.682 138.183 136.936 138.183 136.016C138.183 135.097 137.437 134.351 136.517 134.351C135.597 134.351 134.852 135.097 134.852 136.016C134.852 136.936 135.597 137.682 136.517 137.682Z" fill="white"/>
<path d="M142.072 137.682C142.992 137.682 143.737 136.936 143.737 136.016C143.737 135.097 142.992 134.351 142.072 134.351C141.152 134.351 140.406 135.097 140.406 136.016C140.406 136.936 141.152 137.682 142.072 137.682Z" fill="white"/>
<path d="M108.763 143.234C109.683 143.234 110.429 142.488 110.429 141.568C110.429 140.649 109.683 139.903 108.763 139.903C107.843 139.903 107.098 140.649 107.098 141.568C107.098 142.488 107.843 143.234 108.763 143.234Z" fill="white"/>
<path d="M114.31 143.234C115.23 143.234 115.976 142.488 115.976 141.568C115.976 140.649 115.23 139.903 114.31 139.903C113.39 139.903 112.645 140.649 112.645 141.568C112.645 142.488 113.39 143.234 114.31 143.234Z" fill="white"/>
<path d="M125.412 143.234C126.331 143.234 127.077 142.488 127.077 141.568C127.077 140.649 126.331 139.903 125.412 139.903C124.492 139.903 123.746 140.649 123.746 141.568C123.746 142.488 124.492 143.234 125.412 143.234Z" fill="white"/>
<path d="M136.517 143.234C137.437 143.234 138.183 142.488 138.183 141.568C138.183 140.649 137.437 139.903 136.517 139.903C135.597 139.903 134.852 140.649 134.852 141.568C134.852 142.488 135.597 143.234 136.517 143.234Z" fill="white"/>
<path d="M58.7944 148.786C59.7143 148.786 60.4599 148.04 60.4599 147.121C60.4599 146.201 59.7143 145.455 58.7944 145.455C57.8746 145.455 57.1289 146.201 57.1289 147.121C57.1289 148.04 57.8746 148.786 58.7944 148.786Z" fill="white"/>
<path d="M81.0015 148.786C81.9213 148.786 82.667 148.04 82.667 147.121C82.667 146.201 81.9213 145.455 81.0015 145.455C80.0816 145.455 79.3359 146.201 79.3359 147.121C79.3359 148.04 80.0816 148.786 81.0015 148.786Z" fill="white"/>
<path d="M92.103 148.786C93.0229 148.786 93.7685 148.04 93.7685 147.121C93.7685 146.201 93.0229 145.455 92.103 145.455C91.1832 145.455 90.4375 146.201 90.4375 147.121C90.4375 148.04 91.1832 148.786 92.103 148.786Z" fill="white"/>
<path d="M119.865 148.786C120.785 148.786 121.53 148.04 121.53 147.121C121.53 146.201 120.785 145.455 119.865 145.455C118.945 145.455 118.199 146.201 118.199 147.121C118.199 148.04 118.945 148.786 119.865 148.786Z" fill="white"/>
<path d="M125.412 148.786C126.331 148.786 127.077 148.04 127.077 147.121C127.077 146.201 126.331 145.455 125.412 145.455C124.492 145.455 123.746 146.201 123.746 147.121C123.746 148.04 124.492 148.786 125.412 148.786Z" fill="white"/>
<path d="M130.967 148.786C131.886 148.786 132.632 148.04 132.632 147.12C132.632 146.201 131.886 145.455 130.967 145.455C130.047 145.455 129.301 146.201 129.301 147.12C129.301 148.04 130.047 148.786 130.967 148.786Z" fill="white"/>
<path d="M136.517 148.786C137.437 148.786 138.183 148.04 138.183 147.121C138.183 146.201 137.437 145.455 136.517 145.455C135.597 145.455 134.852 146.201 134.852 147.121C134.852 148.04 135.597 148.786 136.517 148.786Z" fill="white"/>
<path d="M142.072 148.786C142.992 148.786 143.737 148.04 143.737 147.121C143.737 146.201 142.992 145.455 142.072 145.455C141.152 145.455 140.406 146.201 140.406 147.121C140.406 148.04 141.152 148.786 142.072 148.786Z" fill="white"/>
<path d="M147.623 148.786C148.542 148.786 149.288 148.04 149.288 147.121C149.288 146.201 148.542 145.455 147.623 145.455C146.703 145.455 145.957 146.201 145.957 147.121C145.957 148.04 146.703 148.786 147.623 148.786Z" fill="white"/>
<path d="M11.6067 36.8376V24.2187C11.6067 16.9869 17.5604 11.1028 24.8746 11.1028H37.2012C44.5151 11.1028 50.4688 16.9869 50.4688 24.2187V49.9649L24.8746 49.9571C17.5604 49.9571 11.6067 44.0734 11.6067 36.8376ZM17.436 36.8376C17.436 40.8575 20.7727 44.1282 24.8761 44.1282L44.6394 44.134V24.2187C44.6394 20.2008 41.3027 16.9321 37.2012 16.9321H24.8746C20.7727 16.9321 17.436 20.2008 17.436 24.2187V36.8376Z" fill="white"/>
<path d="M150.397 36.8376V24.2187C150.397 16.9869 144.444 11.1028 137.129 11.1028H124.803C117.489 11.1028 111.535 16.9869 111.535 24.2187V49.9649L137.129 49.9571C144.444 49.9571 150.397 44.0734 150.397 36.8376ZM144.568 36.8376C144.568 40.8575 141.231 44.1282 137.128 44.1282L117.364 44.134V24.2187C117.364 20.2008 120.701 16.9321 124.803 16.9321H137.129C141.231 16.9321 144.568 20.2008 144.568 24.2187V36.8376Z" fill="white"/>
<path d="M11.6067 124.161V136.78C11.6067 144.011 17.5604 149.896 24.8746 149.896H37.2012C44.5151 149.896 50.4688 144.011 50.4688 136.78V111.033L24.8746 111.041C17.5604 111.041 11.6067 116.925 11.6067 124.161ZM17.436 124.161C17.436 120.141 20.7727 116.87 24.8761 116.87L44.6394 116.864V136.78C44.6394 140.798 41.3027 144.066 37.2012 144.066H24.8746C20.7727 144.066 17.436 140.798 17.436 136.78V124.161Z" fill="white"/>
<path d="M30.8752 38.5342C35.3843 38.5342 39.0395 34.8789 39.0395 30.3699C39.0395 25.8608 35.3843 22.2056 30.8752 22.2056C26.3662 22.2056 22.7109 25.8608 22.7109 30.3699C22.7109 34.8789 26.3662 38.5342 30.8752 38.5342Z" fill="white"/>
<path d="M130.801 38.5342C135.31 38.5342 138.965 34.8789 138.965 30.3699C138.965 25.8608 135.31 22.2056 130.801 22.2056C126.292 22.2056 122.637 25.8608 122.637 30.3699C122.637 34.8789 126.292 38.5342 130.801 38.5342Z" fill="white"/>
<path d="M30.8752 138.466C35.3843 138.466 39.0395 134.811 39.0395 130.302C39.0395 125.793 35.3843 122.137 30.8752 122.137C26.3662 122.137 22.7109 125.793 22.7109 130.302C22.7109 134.811 26.3662 138.466 30.8752 138.466Z" fill="white"/>
</g>
<defs>
<clipPath id="clip0_387_6189">
<rect width="161" height="161" fill="white" transform="translate(0.5)"/>
</clipPath>
</defs>
</svg>
