<svg width="24" height="30" viewBox="0 0 24 30" xmlns="http://www.w3.org/2000/svg">
<g clip-path="url(#clip0_431_933)">
<path d="M6.71045 0C3.47607 0 0.851074 2.625 0.851074 5.85938C0.851074 7.25391 1.34326 8.54297 2.15185 9.55078C2.35107 9.79688 2.58545 9.89062 2.8081 9.89062C3.38232 9.89062 3.87451 9.21094 3.38232 8.625C2.74951 7.875 2.38623 6.91406 2.38623 5.85938C2.38623 3.46875 4.31982 1.53516 6.71045 1.53516C9.10107 1.53516 11.023 3.46875 11.023 5.85938C11.023 5.92969 11.023 6 11.023 6.10547C11.0347 6.63281 11.398 6.86719 11.773 6.86719C12.1363 6.86719 12.5113 6.60938 12.5464 6.19922C12.5581 6.11719 12.5581 6.01172 12.5581 5.85938C12.5581 2.625 9.94482 0 6.71045 0Z" />
<path d="M17.6791 25.747C22.3315 24.0595 24.3237 19.7939 22.4487 14.6376L21.5698 12.2353C20.644 9.69227 18.9096 8.6493 16.8471 9.36414C16.308 8.6493 15.4526 8.4032 14.5385 8.73133C14.1987 8.86024 13.9057 9.03602 13.6362 9.24695C13.0268 8.47352 12.101 8.19227 11.1401 8.53211C10.8822 8.62586 10.6361 8.76648 10.4018 8.93055L9.06581 5.2743C8.56191 3.87977 7.308 3.29383 6.00722 3.76258C4.69472 4.24305 4.09706 5.49695 4.60097 6.89148L7.95253 16.079C7.96425 16.1376 7.95253 16.1845 7.90566 16.2079C7.85878 16.2314 7.81191 16.2079 7.77675 16.1728L6.40566 14.6728C5.72597 13.9462 4.91738 13.7236 4.13222 14.0048C3.05409 14.4032 2.36269 15.4228 2.808 16.6298C2.92519 16.9697 3.15956 17.3798 3.42909 17.7197L7.34316 22.4657C10.3197 26.0517 13.7885 27.165 17.6791 25.747ZM17.1869 24.2118C14.1049 25.3368 11.2338 24.7626 8.52675 21.4931L4.58925 16.7704C4.47206 16.6298 4.39003 16.5009 4.31972 16.3017C4.17909 15.9267 4.34316 15.4931 4.78847 15.329C5.16347 15.2001 5.46816 15.3407 5.76113 15.6571L8.47988 18.4579C8.92519 18.9267 9.32363 18.9736 9.72206 18.8329C10.1791 18.6689 10.3666 18.1767 10.1908 17.6728L6.03066 6.25867C5.86659 5.78992 6.06581 5.34461 6.52285 5.18055C6.97988 5.01648 7.40175 5.23914 7.56581 5.70789L10.5424 13.8525C10.6713 14.2392 11.1049 14.415 11.4916 14.2743C11.8666 14.1337 12.0776 13.7236 11.9369 13.3486L10.8705 10.4071C11.0229 10.2548 11.2572 10.1025 11.4682 10.0204C12.019 9.82117 12.4877 10.0673 12.6869 10.6415L13.6244 13.2079C13.7768 13.6064 14.2104 13.7587 14.5854 13.6181C14.9487 13.4892 15.1713 13.1025 15.019 12.6923L14.269 10.6064C14.4213 10.454 14.6557 10.3017 14.8666 10.2197C15.4174 10.0204 15.8744 10.2665 16.0854 10.8407L16.7182 12.5517C16.8588 12.9618 17.2924 13.1142 17.6674 12.9736C18.0307 12.8447 18.2651 12.4462 18.1127 12.0478L17.6557 10.7821C18.6283 10.4306 19.5541 11.2275 20.1987 12.9853L20.9252 14.9892C22.5424 19.4189 21.0776 22.7939 17.1869 24.2118Z" />
</g>
<defs>
<clipPath>
<rect width="22.2977" height="29.8008" transform="translate(0.851074)"/>
</clipPath>
</defs>
</svg>
