<svg fill="none" xmlns="http://www.w3.org/2000/svg">
<mask id="mask0_387_2871" style="mask-type:alpha" maskUnits="userSpaceOnUse" x="0" y="0" width="123" height="123">
<g clip-path="url(#clip0_387_2871)">
<path d="M66.2906 100.894C66.8184 100.727 67.3378 100.578 67.8544 100.43C70.5455 99.6573 73.328 98.8585 76.2702 95.9165L76.4857 95.701C78.6536 93.3658 75.4207 90.1363 73.088 92.3033L72.8725 92.5188C69.2506 96.1127 65.487 95.4324 61.0423 97.8401C60.9667 97.8742 60.8922 97.9124 60.8196 97.9547C58.8028 99.0081 56.5597 100.573 54.0535 103.079L38.2561 118.877C37.3179 119.815 37.3179 121.336 38.2561 122.274C39.1944 123.213 40.7154 123.213 41.6538 122.274L57.4512 106.477C58.9796 104.949 60.3577 103.851 61.6341 103.033L80.8857 122.285C83.2208 124.453 86.4504 121.22 84.2834 118.887L66.2906 100.894Z" fill="#1FB0E2"/>
<path d="M98.1577 74.0289L99.616 72.5707C102.829 69.357 102.829 64.1279 99.616 60.9145C98.6017 59.8999 97.3662 59.1833 96.016 58.8085C97.3198 55.8024 96.6164 52.0482 94.2579 49.7553C93.2434 48.7408 92.0078 48.0241 90.6577 47.6494C91.9615 44.6432 91.258 40.889 88.8999 38.5962C87.8853 37.5816 86.65 36.865 85.2999 36.4902C86.6036 33.4841 85.9002 29.7301 83.5418 27.437C81.9896 25.8848 79.9199 25.0298 77.7136 25.03C75.5074 25.03 73.4378 25.8848 71.8856 27.437L70.6714 28.6512L63.1348 25.2069C57.807 22.772 55.0272 25.2427 52.2388 28.1109C49.0183 24.9849 43.8556 25.014 40.6712 28.1981C38.4879 30.3816 37.7878 33.4951 38.5715 36.2752C33.8626 37.1963 30.9194 42.3244 32.4485 46.8722C31.0023 47.2095 29.63 47.9408 28.5047 49.0658C26.0617 51.5088 25.476 55.117 26.7478 58.1188C25.428 58.4868 24.1828 59.1888 23.1466 60.2247C19.9332 63.4384 19.9332 68.6672 23.1466 71.8809L25.2944 74.0285L9.35158 89.9713C8.41345 90.9094 8.41345 92.4306 9.35158 93.369C10.29 94.3071 11.8109 94.3071 12.7493 93.369L28.9441 77.1744C30.1218 77.8017 31.445 78.1344 32.8214 78.1344C35.0275 78.1344 37.0976 77.2796 38.6496 75.7274C40.2623 74.1145 41.0659 71.9943 41.0597 69.8759C41.0666 69.8759 41.0774 69.874 41.0801 69.8759C43.2862 69.8759 45.3561 69.0211 46.9081 67.4689C48.4603 65.9167 49.315 63.8468 49.315 61.6409V61.6205H49.3386C53.7662 61.7214 57.6908 57.7844 57.5769 53.3587H57.5973C63.7842 53.4101 67.7868 46.6629 64.8725 41.2463L75.284 30.8347C76.5522 29.5108 78.877 29.5105 80.145 30.8347C81.4692 32.103 81.4692 34.4275 80.145 35.6957L74.3442 41.4966C72.1763 43.832 75.4092 47.061 77.7419 44.8943L80.6423 41.9939C80.645 41.9912 80.6474 41.9886 80.65 41.9862C81.9197 40.6692 84.238 40.6728 85.5033 41.9939C86.8275 43.2621 86.8273 45.5867 85.5033 46.8549L82.6116 49.7467C82.6087 49.7495 79.7028 52.6557 79.7028 52.6557C77.5348 54.9909 80.768 58.2202 83.1005 56.0532L85.9961 53.1576C85.9975 53.1562 85.9992 53.1545 86.0006 53.153C87.2689 51.8288 89.5934 51.8288 90.8617 53.153C92.1859 54.4213 92.1856 56.7458 90.8617 58.014L85.0608 63.8146C82.8929 66.15 86.1258 69.3791 88.4585 67.2124L91.359 64.3119C92.6272 62.9877 94.9518 62.9877 96.2197 64.3119C97.56 65.6522 97.56 67.8329 96.2197 69.1732L88.3783 77.0146C86.2104 79.35 89.4433 82.5791 91.776 80.4123L94.7617 77.4266L110.253 92.9183C111.192 93.8564 112.713 93.8564 113.651 92.9183C114.589 91.9801 114.589 90.4589 113.651 89.5206L98.1577 74.0289ZM61.1372 29.5771L67.0452 32.2771L61.7256 37.5968L55.6372 31.5084C58.1895 28.8806 58.7995 28.5085 61.1372 29.5771ZM35.2509 72.3302C34.6063 72.9748 33.7432 73.3298 32.8204 73.3298C31.8976 73.3298 31.0344 72.9748 30.3901 72.3302L26.5436 68.4837C25.8991 67.8391 25.544 66.976 25.544 66.0532C25.544 65.1304 25.8991 64.2673 26.5436 63.6227C27.882 62.2841 30.0596 62.2824 31.4003 63.6181C31.4018 63.6196 31.4032 63.6212 31.4047 63.6227L35.2511 67.4692C35.2519 67.4699 35.2526 67.4706 35.2535 67.4713C36.5912 68.8119 36.5905 70.9906 35.2509 72.3302ZM43.5096 64.0715C42.2431 65.3942 39.9202 65.3957 38.652 64.0746C38.651 64.0736 38.6498 64.0724 38.6489 64.0715L31.902 57.3248C30.5617 55.9845 30.5617 53.8038 31.902 52.4638C33.2425 51.1235 35.4232 51.1235 36.763 52.4638L36.7675 52.4683L43.5096 59.2107C44.8338 60.4787 44.8338 62.8037 43.5096 64.0715ZM51.7681 55.813C50.4281 57.153 48.2474 57.1535 46.9071 55.813L37.858 46.7638C37.2134 46.1193 36.8586 45.2563 36.8583 44.3336C36.8583 43.4108 37.2134 42.5476 37.858 41.9031C39.1248 40.5801 41.4474 40.5786 42.7159 41.8999L42.719 41.9031L51.7681 50.9522C51.7688 50.9529 51.7696 50.9536 51.7705 50.9544C53.1084 52.2947 53.1077 54.4736 51.7681 55.813ZM60.0269 47.5542C58.7601 48.8772 56.4374 48.8787 55.169 47.5574C55.168 47.5564 55.1668 47.5552 55.1658 47.5542L44.0684 36.4568C42.7442 35.1888 42.7442 32.8638 44.0684 31.5958C45.3364 30.2716 47.6615 30.2716 48.9294 31.5958L60.0269 42.6932C61.3511 43.9614 61.3511 46.2865 60.0269 47.5542Z" fill="#1FB0E2"/>
<path d="M61.5 14.288C62.8268 14.288 63.9024 13.2124 63.9024 11.8856V2.3872C63.7842 -0.796936 59.2146 -0.794534 59.0976 2.3872V11.8858C59.0976 13.2124 60.1731 14.288 61.5 14.288Z" fill="#1FB0E2"/>
<path d="M34.6191 19.7321C35.2862 20.8919 36.7721 21.2689 37.9007 20.6113C39.0498 19.948 39.4436 18.4787 38.78 17.3297L34.0307 9.1036C33.3672 7.95453 31.8979 7.56078 30.749 8.22432C29.6 8.88762 29.2062 10.3569 29.8698 11.506L34.6191 19.7321Z" fill="#1FB0E2"/>
<path d="M9.11736 34.0173L17.3432 38.7666C18.4718 39.4239 19.9577 39.0469 20.6249 37.8873C21.2884 36.7382 20.8946 35.2689 19.7456 34.6056L11.5198 29.8563C10.3709 29.193 8.90139 29.5865 8.23808 30.7356C7.57454 31.8846 7.96829 33.3539 9.11736 34.0173Z" fill="#1FB0E2"/>
<path d="M14.3017 61.4865C14.3017 60.1597 13.2262 59.0841 11.8993 59.0841H2.40072C-0.783417 59.2023 -0.781015 63.7719 2.40072 63.8889H11.8993C13.2262 63.8889 14.3017 62.8134 14.3017 61.4865Z" fill="#1FB0E2"/>
<path d="M120.599 59.0841H111.101C107.917 59.2023 107.919 63.7719 111.101 63.8889H120.599C123.783 63.7707 123.781 59.2011 120.599 59.0841Z" fill="#1FB0E2"/>
<path d="M104.458 39.0889C104.865 39.0889 105.278 38.9849 105.657 38.7665L113.883 34.0172C116.581 32.323 114.294 28.3663 111.481 29.8562L103.254 34.6055C102.105 35.2688 101.712 36.7381 102.375 37.8872C102.82 38.6581 103.628 39.0889 104.458 39.0889Z" fill="#1FB0E2"/>
<path d="M85.0993 20.6116C86.2279 21.2691 87.7138 20.8919 88.3809 19.7323L93.1302 11.5062C94.62 8.68965 90.6618 6.40737 88.9693 9.10382L84.22 17.3299C83.5564 18.4787 83.9502 19.948 85.0993 20.6116Z" fill="#1FB0E2"/>
<path d="M84.8349 86.3583C84.8349 85.0315 83.7594 83.9559 82.4325 83.9559H82.4309C81.104 83.9559 80.0295 85.0315 80.0295 86.3583C80.1474 89.5411 84.7177 89.5409 84.8349 86.3583Z" fill="#1FB0E2"/>
</g>
</mask>
<g mask="url(#mask0_387_2871)">
<rect width="123" height="123" fill="url(#paint0_linear_387_2871)"/>
</g>
<defs>
<linearGradient id="paint0_linear_387_2871" x1="61.5" y1="0" x2="61.5" y2="123" gradientUnits="userSpaceOnUse">
<stop stop-color="#1D9ED3"/>
<stop offset="1" stop-color="#1673B1"/>
</linearGradient>
<clipPath id="clip0_387_2871">
<rect width="123" height="123" fill="white"/>
</clipPath>
</defs>
</svg>
