<svg width="25" height="25" viewBox="0 0 25 25" fill="none" xmlns="http://www.w3.org/2000/svg">
<path d="M9.50015 16.67L6.03015 13.2C5.84317 13.013 5.58957 12.9079 5.32515 12.9079C5.06072 12.9079 4.80712 13.013 4.62015 13.2C4.43317 13.3869 4.32812 13.6405 4.32812 13.905C4.32813 14.0359 4.35391 14.1655 4.40402 14.2865C4.45412 14.4075 4.52756 14.5174 4.62015 14.61L8.80015 18.79C9.19015 19.18 9.82015 19.18 10.2101 18.79L20.7901 8.20996C20.9771 8.02298 21.0822 7.76938 21.0822 7.50496C21.0822 7.24053 20.9771 6.98693 20.7901 6.79996C20.6032 6.61298 20.3496 6.50793 20.0851 6.50793C19.8207 6.50793 19.5671 6.61298 19.3801 6.79996L9.50015 16.67Z" fill="white"/>
</svg>
